<svg version="1.1" id="Layer_1" xmlns="http://www.w3.org/2000/svg" xmlns:xlink="http://www.w3.org/1999/xlink" x="0px" y="0px"
	 width="100%" viewBox="0 0 500 500" enable-background="new 0 0 500 500" xml:space="preserve">
<path fill="#000101" opacity="1.000000" stroke="none" 
	d="
M328.000000,501.000000 
	C218.666687,501.000000 109.833382,501.000000 1.000058,501.000000 
	C1.000039,334.333405 1.000039,167.666794 1.000019,1.000148 
	C167.666565,1.000099 334.333130,1.000099 500.999756,1.000049 
	C500.999847,167.666519 500.999847,334.333038 500.999939,500.999786 
	C443.500000,501.000000 386.000000,501.000000 328.000000,501.000000 
M271.070465,254.148560 
	C271.070465,254.148560 271.312836,254.343674 271.858459,254.224930 
	C272.013428,253.903809 272.168427,253.582703 272.221130,253.193710 
	C272.221130,253.193710 272.235931,253.315552 272.852783,253.188126 
	C273.071014,252.842133 273.289246,252.496155 274.080566,251.878281 
	C279.325684,246.096237 283.718475,239.849060 285.431915,231.343353 
	C288.985870,218.122894 288.932556,205.226379 282.250732,192.345367 
	C281.221985,190.513565 280.193268,188.681747 279.140076,186.191727 
	C278.589447,185.290817 278.038849,184.389908 277.300751,182.977570 
	C276.910950,182.634445 276.521149,182.291321 275.950775,181.306839 
	C274.169586,179.677856 272.388428,178.048889 270.269257,175.833664 
	C268.059753,174.168137 265.875183,172.468277 263.636902,170.842346 
	C240.285706,153.879623 207.751434,161.111618 192.051544,182.325790 
	C191.191101,183.697739 190.330658,185.069687 189.449814,186.557465 
	C189.449814,186.557465 189.364685,186.638641 189.050430,186.836578 
	C189.050430,186.836578 189.034805,187.207642 188.496597,187.599457 
	C181.685471,198.476715 179.133026,210.237885 180.976013,223.767441 
	C182.256454,232.405045 184.803253,240.502289 191.034241,247.714905 
	C192.187256,248.970093 193.340271,250.225266 194.634476,251.857300 
	C194.634476,251.857300 195.008942,252.008453 195.200027,252.652481 
	C204.833649,263.782257 217.513885,268.807281 231.734940,269.546234 
	C246.370163,270.306702 259.653503,266.196716 270.238007,255.347656 
	C270.238007,255.347656 270.249268,255.309738 270.796051,255.211029 
	C270.977783,254.908005 271.159485,254.604965 271.070465,254.148560 
M263.499969,299.897339 
	C273.995575,299.899109 284.491852,299.972809 294.986511,299.874146 
	C300.773071,299.819794 303.760254,296.709076 303.234131,291.677948 
	C302.782898,287.363495 299.581940,285.132385 293.658173,285.126740 
	C259.837769,285.094574 226.017303,285.110718 192.196945,285.051239 
	C176.332748,285.023346 163.719543,273.152252 163.534866,257.224335 
	C163.206512,228.905884 163.168472,200.577820 163.522263,172.260178 
	C163.723511,156.152405 175.692108,145.003342 191.748962,144.950638 
	C212.907410,144.881210 234.070984,145.172943 255.223068,144.792923 
	C268.736053,144.550156 278.910553,150.030579 286.840088,160.560699 
	C294.392059,170.589462 299.521332,171.110672 308.862000,162.377502 
	C319.791718,152.158676 330.500458,141.702866 341.266266,131.309692 
	C345.143707,127.566483 345.545624,123.175797 342.470306,119.892937 
	C339.318024,116.527992 335.096100,116.662415 331.144165,120.549057 
	C321.660095,129.876465 312.238220,139.268066 302.871887,148.713745 
	C300.091095,151.518127 298.071533,152.520828 294.971527,148.660660 
	C286.083527,137.593231 274.379333,131.221008 260.094360,131.007828 
	C236.608383,130.657349 213.112259,130.703186 189.623337,130.911667 
	C165.404770,131.126602 149.706848,150.123535 149.224426,171.351608 
	C148.577362,199.825180 148.807358,228.327545 149.142303,256.811890 
	C149.430923,281.356934 168.566925,299.837982 193.026306,299.879639 
	C216.184128,299.919067 239.342056,299.894043 263.499969,299.897339 
M381.792389,367.378967 
	C381.937805,366.559692 382.081329,365.740082 382.228912,364.921204 
	C383.877350,355.773224 385.699738,346.651672 387.091705,337.464844 
	C387.664673,333.683563 386.213562,330.436066 381.811646,329.805603 
	C377.478424,329.185089 374.810608,331.271301 373.761719,335.431580 
	C373.112762,338.005585 372.584015,340.611237 372.050568,343.212769 
	C370.326202,351.622070 368.624664,360.036041 366.914337,368.448212 
	C364.659729,365.138611 363.932800,361.538696 361.976624,358.824799 
	C360.325500,356.534210 357.254913,353.941925 354.800323,353.929565 
	C352.367188,353.917358 349.255890,356.497040 347.644684,358.786407 
	C345.629150,361.650146 344.841125,365.377777 343.092865,369.828033 
	C342.213684,366.270538 341.498413,363.764008 340.982208,361.217102 
	C339.234283,352.592468 337.746155,343.910034 335.774597,335.338043 
	C334.753143,330.897095 331.031769,328.778717 327.114227,329.869385 
	C323.030090,331.006500 321.563538,334.304169 322.273804,338.005859 
	C325.683441,355.775360 329.361420,373.493469 332.960876,391.226379 
	C333.811981,395.419403 336.252502,398.373383 340.603973,398.549194 
	C344.899750,398.722717 346.862488,395.474548 348.234009,391.834381 
	C350.214417,386.578186 352.304657,381.363373 354.760254,375.075409 
	C357.113129,381.323944 358.990265,386.776459 361.225494,392.078003 
	C362.674072,395.513947 364.773254,398.755829 369.206482,398.435699 
	C373.896301,398.097076 376.096344,394.960266 376.976685,390.641785 
	C378.502106,383.158569 380.047760,375.679474 381.792389,367.378967 
M143.703812,329.768127 
	C131.735916,330.214203 122.752655,336.311432 116.250504,345.690674 
	C108.914406,356.272858 109.877174,374.112000 117.407936,384.470093 
	C125.468353,395.556671 141.074081,401.167206 154.239151,397.711578 
	C166.946259,394.376160 171.879196,388.079224 171.869858,375.205933 
	C171.868530,373.374481 171.913101,371.541656 171.857178,369.711884 
	C171.698105,364.507385 169.028107,360.997559 163.926315,360.463440 
	C159.320541,359.981232 154.466522,359.640991 150.034149,360.632935 
	C147.668274,361.162445 144.714920,364.404846 144.252472,366.844666 
	C143.566650,370.463135 146.609161,372.795959 150.376007,373.267090 
	C152.487366,373.531158 154.636398,373.494263 156.721695,373.590851 
	C157.991470,381.414368 157.272049,382.664948 150.053726,384.138458 
	C142.018936,385.778534 135.275574,383.406616 130.065338,377.017212 
	C124.919273,370.706543 123.407867,363.732544 126.638725,356.060547 
	C131.321106,344.941803 141.595245,341.300507 155.213074,346.157043 
	C159.273682,347.605194 162.791153,347.159760 164.727570,343.486664 
	C166.769684,339.613098 164.753113,335.844086 161.079865,334.388702 
	C155.782837,332.289948 150.064835,331.253723 143.703812,329.768127 
M279.441803,391.184326 
	C296.702209,390.461700 308.121490,378.625549 307.879700,361.708282 
	C307.652618,345.822357 295.113586,333.246307 279.350891,333.095306 
	C263.915955,332.947449 250.615555,345.923920 250.328125,361.411224 
	C250.018250,378.108185 261.608551,390.357269 279.441803,391.184326 
M188.889877,368.499939 
	C188.888474,375.163879 188.813400,381.828888 188.908691,388.491425 
	C188.986435,393.927856 191.796310,397.826935 196.540161,397.939697 
	C208.693558,398.228394 220.861954,398.202087 233.016754,397.944427 
	C237.278870,397.854065 239.769928,394.709930 239.671921,390.614685 
	C239.569061,386.316895 236.490433,384.134369 232.324036,384.042084 
	C225.496750,383.890808 218.663635,384.001953 211.832977,384.002350 
	C208.919235,384.002502 206.005493,384.002380 202.863663,384.002380 
	C202.863663,368.381775 202.890259,353.558289 202.849838,338.734924 
	C202.834854,333.241028 200.725479,330.262115 196.804871,329.876617 
	C192.237076,329.427521 188.980453,332.622864 188.919785,338.011871 
	C188.809128,347.840088 188.889526,357.670471 188.889877,368.499939 
M230.352859,109.116760 
	C229.939865,103.276627 228.150391,100.901367 223.310242,100.867622 
	C206.864807,100.752953 190.417191,100.759987 173.972107,100.908516 
	C169.572693,100.948250 166.838806,104.097771 166.843445,108.256042 
	C166.848160,112.486443 169.478821,115.323975 174.111237,115.362320 
	C190.224701,115.495712 206.339737,115.463631 222.454117,115.444519 
	C226.313477,115.439941 229.208694,113.910751 230.352859,109.116760 
M307.900391,204.065598 
	C303.683868,205.892990 302.374023,209.218170 303.439911,213.444046 
	C304.546021,217.829315 308.155731,218.702484 312.005768,218.728470 
	C322.832214,218.801590 333.659454,218.767136 344.486359,218.765671 
	C346.817719,218.765366 349.167725,218.905273 351.476532,218.665909 
	C356.176147,218.178711 359.040680,215.119690 359.011108,210.918915 
	C358.980713,206.600357 356.194000,203.817032 351.148285,203.787582 
	C336.996155,203.704956 322.842773,203.837784 307.900391,204.065598 
M336.497681,249.129150 
	C340.655212,249.146698 344.812866,249.195221 348.970215,249.173965 
	C354.218384,249.147141 357.903259,246.152832 357.971954,241.927277 
	C358.040833,237.689423 354.531250,234.856125 348.950073,234.839157 
	C335.479340,234.798233 322.008362,234.813660 308.537567,234.839874 
	C303.404541,234.849869 300.019653,237.593796 299.921356,241.709930 
	C299.817657,246.052643 303.372101,249.154922 308.557129,249.162231 
	C317.537598,249.174896 326.518158,249.143494 336.497681,249.129150 
M326.842285,167.346115 
	C324.897247,169.397064 322.968658,171.463959 321.003693,173.495636 
	C317.105652,177.526001 316.644928,181.254593 319.690521,184.373032 
	C322.975677,187.736771 326.884796,187.516968 331.082123,183.484802 
	C339.351807,175.540482 347.556854,167.528397 355.742737,159.497574 
	C359.299774,156.007935 359.462585,152.716461 356.409668,149.584381 
	C353.349976,146.445435 348.828857,146.196793 345.652252,149.202850 
	C339.497253,155.027420 333.441193,160.956573 326.842285,167.346115 
M285.025879,114.426422 
	C283.073059,118.831879 285.319977,121.484970 289.047913,123.042290 
	C293.322296,124.827873 296.735840,122.906937 298.498077,119.068497 
	C301.595184,112.322601 304.174774,105.339020 306.968872,98.454094 
	C308.832947,93.860817 307.727356,90.464417 303.722382,88.466049 
	C300.019775,86.618568 296.192749,88.068733 294.101471,92.672447 
	C290.958313,99.591812 288.175385,106.674812 285.025879,114.426422 
M255.327774,114.085541 
	C256.579468,111.552696 258.692596,109.091782 258.911255,106.472679 
	C259.435944,100.188988 259.144409,93.829826 259.042542,87.503365 
	C258.955597,82.103447 255.990372,78.714363 251.588593,78.698830 
	C247.192032,78.683311 244.182800,82.074448 244.077469,87.495232 
	C243.957779,93.654655 244.018616,99.818176 244.046356,105.979706 
	C244.077560,112.909843 247.674545,115.765717 255.327774,114.085541 
M321.682434,281.180176 
	C322.957611,280.450409 324.449890,279.943115 325.467712,278.949677 
	C328.654205,275.839539 328.631531,270.827148 325.614655,267.695648 
	C322.597198,264.563538 315.344635,264.574463 312.360840,267.715637 
	C309.393982,270.838959 309.174469,276.264587 312.680176,278.844971 
	C314.853149,280.444397 318.142212,280.527588 321.682434,281.180176 
z"/>
<path fill="#F9FAFA" opacity="1.000000" stroke="none" 
	d="
M262.999939,299.897339 
	C239.342056,299.894043 216.184128,299.919067 193.026306,299.879639 
	C168.566925,299.837982 149.430923,281.356934 149.142303,256.811890 
	C148.807358,228.327545 148.577362,199.825180 149.224426,171.351608 
	C149.706848,150.123535 165.404770,131.126602 189.623337,130.911667 
	C213.112259,130.703186 236.608383,130.657349 260.094360,131.007828 
	C274.379333,131.221008 286.083527,137.593231 294.971527,148.660660 
	C298.071533,152.520828 300.091095,151.518127 302.871887,148.713745 
	C312.238220,139.268066 321.660095,129.876465 331.144165,120.549057 
	C335.096100,116.662415 339.318024,116.527992 342.470306,119.892937 
	C345.545624,123.175797 345.143707,127.566483 341.266266,131.309692 
	C330.500458,141.702866 319.791718,152.158676 308.862000,162.377502 
	C299.521332,171.110672 294.392059,170.589462 286.840088,160.560699 
	C278.910553,150.030579 268.736053,144.550156 255.223068,144.792923 
	C234.070984,145.172943 212.907410,144.881210 191.748962,144.950638 
	C175.692108,145.003342 163.723511,156.152405 163.522263,172.260178 
	C163.168472,200.577820 163.206512,228.905884 163.534866,257.224335 
	C163.719543,273.152252 176.332748,285.023346 192.196945,285.051239 
	C226.017303,285.110718 259.837769,285.094574 293.658173,285.126740 
	C299.581940,285.132385 302.782898,287.363495 303.234131,291.677948 
	C303.760254,296.709076 300.773071,299.819794 294.986511,299.874146 
	C284.491852,299.972809 273.995575,299.899109 262.999939,299.897339 
z"/>
<path fill="#F9FAFA" opacity="1.000000" stroke="none" 
	d="
M381.688660,367.788818 
	C380.047760,375.679474 378.502106,383.158569 376.976685,390.641785 
	C376.096344,394.960266 373.896301,398.097076 369.206482,398.435699 
	C364.773254,398.755829 362.674072,395.513947 361.225494,392.078003 
	C358.990265,386.776459 357.113129,381.323944 354.760254,375.075409 
	C352.304657,381.363373 350.214417,386.578186 348.234009,391.834381 
	C346.862488,395.474548 344.899750,398.722717 340.603973,398.549194 
	C336.252502,398.373383 333.811981,395.419403 332.960876,391.226379 
	C329.361420,373.493469 325.683441,355.775360 322.273804,338.005859 
	C321.563538,334.304169 323.030090,331.006500 327.114227,329.869385 
	C331.031769,328.778717 334.753143,330.897095 335.774597,335.338043 
	C337.746155,343.910034 339.234283,352.592468 340.982208,361.217102 
	C341.498413,363.764008 342.213684,366.270538 343.092865,369.828033 
	C344.841125,365.377777 345.629150,361.650146 347.644684,358.786407 
	C349.255890,356.497040 352.367188,353.917358 354.800323,353.929565 
	C357.254913,353.941925 360.325500,356.534210 361.976624,358.824799 
	C363.932800,361.538696 364.659729,365.138611 366.914337,368.448212 
	C368.624664,360.036041 370.326202,351.622070 372.050568,343.212769 
	C372.584015,340.611237 373.112762,338.005585 373.761719,335.431580 
	C374.810608,331.271301 377.478424,329.185089 381.811646,329.805603 
	C386.213562,330.436066 387.664673,333.683563 387.091705,337.464844 
	C385.699738,346.651672 383.877350,355.773224 382.228912,364.921204 
	C382.081329,365.740082 381.937805,366.559692 381.688660,367.788818 
z"/>
<path fill="#F7F9F9" opacity="1.000000" stroke="none" 
	d="
M144.115143,329.766113 
	C150.064835,331.253723 155.782837,332.289948 161.079865,334.388702 
	C164.753113,335.844086 166.769684,339.613098 164.727570,343.486664 
	C162.791153,347.159760 159.273682,347.605194 155.213074,346.157043 
	C141.595245,341.300507 131.321106,344.941803 126.638725,356.060547 
	C123.407867,363.732544 124.919273,370.706543 130.065338,377.017212 
	C135.275574,383.406616 142.018936,385.778534 150.053726,384.138458 
	C157.272049,382.664948 157.991470,381.414368 156.721695,373.590851 
	C154.636398,373.494263 152.487366,373.531158 150.376007,373.267090 
	C146.609161,372.795959 143.566650,370.463135 144.252472,366.844666 
	C144.714920,364.404846 147.668274,361.162445 150.034149,360.632935 
	C154.466522,359.640991 159.320541,359.981232 163.926315,360.463440 
	C169.028107,360.997559 171.698105,364.507385 171.857178,369.711884 
	C171.913101,371.541656 171.868530,373.374481 171.869858,375.205933 
	C171.879196,388.079224 166.946259,394.376160 154.239151,397.711578 
	C141.074081,401.167206 125.468353,395.556671 117.407936,384.470093 
	C109.877174,374.112000 108.914406,356.272858 116.250504,345.690674 
	C122.752655,336.311432 131.735916,330.214203 144.115143,329.766113 
z"/>
<path fill="#F7F8F9" opacity="1.000000" stroke="none" 
	d="
M278.978516,391.192322 
	C261.608551,390.357269 250.018250,378.108185 250.328125,361.411224 
	C250.615555,345.923920 263.915955,332.947449 279.350891,333.095306 
	C295.113586,333.246307 307.652618,345.822357 307.879700,361.708282 
	C308.121490,378.625549 296.702209,390.461700 278.978516,391.192322 
M289.568634,376.169312 
	C297.094452,369.435181 298.806488,361.176392 294.264313,353.517944 
	C289.989655,346.310547 281.314819,343.033081 273.616425,345.747162 
	C267.130005,348.033936 263.019440,352.430634 261.962799,359.335663 
	C260.815399,366.833771 263.542542,372.813019 269.812073,376.901031 
	C276.139435,381.026764 282.653656,380.719177 289.568634,376.169312 
z"/>
<path fill="#FAFBFB" opacity="1.000000" stroke="none" 
	d="
M188.890045,367.999939 
	C188.889526,357.670471 188.809128,347.840088 188.919785,338.011871 
	C188.980453,332.622864 192.237076,329.427521 196.804871,329.876617 
	C200.725479,330.262115 202.834854,333.241028 202.849838,338.734924 
	C202.890259,353.558289 202.863663,368.381775 202.863663,384.002380 
	C206.005493,384.002380 208.919235,384.002502 211.832977,384.002350 
	C218.663635,384.001953 225.496750,383.890808 232.324036,384.042084 
	C236.490433,384.134369 239.569061,386.316895 239.671921,390.614685 
	C239.769928,394.709930 237.278870,397.854065 233.016754,397.944427 
	C220.861954,398.202087 208.693558,398.228394 196.540161,397.939697 
	C191.796310,397.826935 188.986435,393.927856 188.908691,388.491425 
	C188.813400,381.828888 188.888474,375.163879 188.890045,367.999939 
z"/>
<path fill="#089EF2" opacity="1.000000" stroke="none" 
	d="
M270.251190,255.386032 
	C259.653503,266.196716 246.370163,270.306702 231.734940,269.546234 
	C217.513885,268.807281 204.833649,263.782257 195.339066,252.290649 
	C195.478104,251.928818 195.950073,251.866699 196.306488,251.944946 
	C199.176682,253.985046 201.690475,255.946915 203.357635,257.248047 
	C206.657730,256.308960 209.075867,255.573883 211.519684,254.937286 
	C214.609329,254.132446 218.007477,253.625488 216.372711,249.026733 
	C226.868256,254.323776 237.353806,253.762650 248.038300,251.120880 
	C248.179825,251.305786 248.259598,251.358490 248.339355,251.411194 
	C248.224213,251.268066 248.109055,251.124939 248.235535,250.743515 
	C249.962112,249.951248 251.447037,249.397278 252.966354,249.265686 
	C253.522186,250.417328 254.091766,251.808868 254.557785,251.774979 
	C260.185974,251.366089 265.352814,252.739822 270.251190,255.386032 
z"/>
<path fill="#FCFDFD" opacity="1.000000" stroke="none" 
	d="
M230.279251,109.482483 
	C229.208694,113.910751 226.313477,115.439941 222.454117,115.444519 
	C206.339737,115.463631 190.224701,115.495712 174.111237,115.362320 
	C169.478821,115.323975 166.848160,112.486443 166.843445,108.256042 
	C166.838806,104.097771 169.572693,100.948250 173.972107,100.908516 
	C190.417191,100.759987 206.864807,100.752953 223.310242,100.867622 
	C228.150391,100.901367 229.939865,103.276627 230.279251,109.482483 
z"/>
<path fill="#F6F7F8" opacity="1.000000" stroke="none" 
	d="
M308.295135,203.975601 
	C322.842773,203.837784 336.996155,203.704956 351.148285,203.787582 
	C356.194000,203.817032 358.980713,206.600357 359.011108,210.918915 
	C359.040680,215.119690 356.176147,218.178711 351.476532,218.665909 
	C349.167725,218.905273 346.817719,218.765366 344.486359,218.765671 
	C333.659454,218.767136 322.832214,218.801590 312.005768,218.728470 
	C308.155731,218.702484 304.546021,217.829315 303.439911,213.444046 
	C302.374023,209.218170 303.683868,205.892990 308.295135,203.975601 
z"/>
<path fill="#FCFDFD" opacity="1.000000" stroke="none" 
	d="
M335.998169,249.129852 
	C326.518158,249.143494 317.537598,249.174896 308.557129,249.162231 
	C303.372101,249.154922 299.817657,246.052643 299.921356,241.709930 
	C300.019653,237.593796 303.404541,234.849869 308.537567,234.839874 
	C322.008362,234.813660 335.479340,234.798233 348.950073,234.839157 
	C354.531250,234.856125 358.040833,237.689423 357.971954,241.927277 
	C357.903259,246.152832 354.218384,249.147141 348.970215,249.173965 
	C344.812866,249.195221 340.655212,249.146698 335.998169,249.129852 
z"/>
<path fill="#F7F8F9" opacity="1.000000" stroke="none" 
	d="
M327.093201,167.094254 
	C333.441193,160.956573 339.497253,155.027420 345.652252,149.202850 
	C348.828857,146.196793 353.349976,146.445435 356.409668,149.584381 
	C359.462585,152.716461 359.299774,156.007935 355.742737,159.497574 
	C347.556854,167.528397 339.351807,175.540482 331.082123,183.484802 
	C326.884796,187.516968 322.975677,187.736771 319.690521,184.373032 
	C316.644928,181.254593 317.105652,177.526001 321.003693,173.495636 
	C322.968658,171.463959 324.897247,169.397064 327.093201,167.094254 
z"/>
<path fill="#F7F8F9" opacity="1.000000" stroke="none" 
	d="
M285.132568,114.057327 
	C288.175385,106.674812 290.958313,99.591812 294.101471,92.672447 
	C296.192749,88.068733 300.019775,86.618568 303.722382,88.466049 
	C307.727356,90.464417 308.832947,93.860817 306.968872,98.454094 
	C304.174774,105.339020 301.595184,112.322601 298.498077,119.068497 
	C296.735840,122.906937 293.322296,124.827873 289.047913,123.042290 
	C285.319977,121.484970 283.073059,118.831879 285.132568,114.057327 
z"/>
<path fill="#08AFF5" opacity="1.000000" stroke="none" 
	d="
M270.244598,255.366852 
	C265.352814,252.739822 260.185974,251.366089 254.557785,251.774979 
	C254.091766,251.808868 253.522186,250.417328 253.152344,248.992615 
	C256.368591,245.625656 259.820618,243.278580 262.398987,240.199860 
	C265.563629,236.421036 267.998169,232.030746 271.195801,227.931885 
	C276.085358,227.622467 280.527405,227.285950 284.977753,227.362854 
	C284.985779,229.149490 284.985504,230.522720 284.985229,231.895966 
	C283.718475,239.849060 279.325684,246.096237 273.474548,252.070831 
	C272.657684,252.614105 272.446808,252.964828 272.235931,253.315552 
	C272.235931,253.315552 272.221130,253.193710 271.978241,253.259949 
	C271.594513,253.665359 271.453674,254.004517 271.312836,254.343674 
	C271.312836,254.343674 271.070465,254.148560 270.911194,254.238373 
	C270.584351,254.655350 270.416809,254.982544 270.249268,255.309738 
	C270.249268,255.309738 270.238007,255.347656 270.244598,255.366852 
z"/>
<path fill="#FAFBFB" opacity="1.000000" stroke="none" 
	d="
M254.961456,114.248871 
	C247.674545,115.765717 244.077560,112.909843 244.046356,105.979706 
	C244.018616,99.818176 243.957779,93.654655 244.077469,87.495232 
	C244.182800,82.074448 247.192032,78.683311 251.588593,78.698830 
	C255.990372,78.714363 258.955597,82.103447 259.042542,87.503365 
	C259.144409,93.829826 259.435944,100.188988 258.911255,106.472679 
	C258.692596,109.091782 256.579468,111.552696 254.961456,114.248871 
z"/>
<path fill="#09B7F6" opacity="1.000000" stroke="none" 
	d="
M190.921524,247.075592 
	C184.803253,240.502289 182.256454,232.405045 181.312103,223.087646 
	C181.768555,220.934494 181.888916,219.461151 182.459747,217.993347 
	C187.262161,217.653152 191.614120,217.307419 195.983765,217.360626 
	C196.404953,219.164047 196.808411,220.568512 197.439209,222.208099 
	C197.942505,223.927689 197.916885,225.556946 198.547806,226.870941 
	C200.984604,231.946030 203.630981,236.920502 205.839157,241.825531 
	C200.942856,242.536499 196.391510,243.285889 191.894623,244.281189 
	C191.458191,244.377792 191.358414,245.995438 191.057037,246.949036 
	C191.011703,246.991058 190.921524,247.075592 190.921524,247.075592 
z"/>
<path fill="#61EFF4" opacity="1.000000" stroke="none" 
	d="
M192.684998,181.940186 
	C207.751434,161.111618 240.285706,153.879623 263.636902,170.842346 
	C265.875183,172.468277 268.059753,174.168137 270.273590,176.279190 
	C270.277924,176.724716 269.964722,177.045776 269.615753,176.992828 
	C268.566833,176.513916 267.888733,176.046021 267.163483,175.668640 
	C261.764709,172.859283 257.788300,166.393631 250.647446,168.161652 
	C246.838745,169.104660 243.357361,168.336105 239.773315,168.445679 
	C235.730179,168.569305 231.787262,170.581161 227.679977,168.306763 
	C227.256683,168.072357 226.197586,168.899780 225.474411,169.307129 
	C220.240555,172.255157 213.488510,169.717865 208.614075,173.971603 
	C208.520615,174.053162 208.259659,174.035980 208.128113,173.967026 
	C204.898773,172.274811 202.887314,174.560745 200.732681,176.261902 
	C198.789566,177.796082 196.915817,179.418167 194.775513,181.095734 
	C193.921356,181.440079 193.303177,181.690140 192.684998,181.940186 
z"/>
<path fill="#1BC2ED" opacity="1.000000" stroke="none" 
	d="
M285.208557,231.619659 
	C284.985504,230.522720 284.985779,229.149490 285.153503,226.988342 
	C286.305542,219.251099 286.849091,212.327744 284.815338,206.058685 
	C282.004303,206.809769 279.800171,207.818069 277.565308,207.891510 
	C274.662628,207.986893 274.137695,209.220474 273.894653,211.822266 
	C273.540558,215.612854 272.503448,219.339630 271.419769,222.882507 
	C272.496704,213.692795 271.626404,205.065613 267.423767,196.829132 
	C269.846161,193.492538 272.750977,194.517410 275.504059,195.354263 
	C278.097504,196.142532 280.395477,196.684433 281.167114,193.004272 
	C281.547211,192.964096 281.764954,192.948090 281.983948,192.949097 
	C288.932556,205.226379 288.985870,218.122894 285.208557,231.619659 
z"/>
<path fill="#2AD2F2" opacity="1.000000" stroke="none" 
	d="
M182.009262,217.987793 
	C181.888916,219.461151 181.768555,220.934494 181.403931,222.678650 
	C179.133026,210.237885 181.685471,198.476715 188.920502,187.516266 
	C189.464523,187.389954 189.584641,187.346832 189.704758,187.303711 
	C189.591400,187.082016 189.478043,186.860336 189.364685,186.638641 
	C189.364685,186.638641 189.449814,186.557465 189.842804,186.637604 
	C194.030457,186.480881 197.828064,186.282547 201.618835,185.994598 
	C204.474670,185.777695 206.023132,187.038818 206.236984,190.154388 
	C203.323318,195.954727 200.517944,201.460617 197.496918,206.682236 
	C197.491592,203.778748 197.701950,201.159531 197.894012,198.767929 
	C194.952026,198.767929 192.771378,198.779037 190.590881,198.765289 
	C187.441101,198.745438 184.196671,198.334381 183.794998,202.984924 
	C183.361816,207.999878 182.617722,212.987976 182.009262,217.987793 
z"/>
<path fill="#F3F5F5" opacity="1.000000" stroke="none" 
	d="
M321.306366,281.235779 
	C318.142212,280.527588 314.853149,280.444397 312.680176,278.844971 
	C309.174469,276.264587 309.393982,270.838959 312.360840,267.715637 
	C315.344635,264.574463 322.597198,264.563538 325.614655,267.695648 
	C328.631531,270.827148 328.654205,275.839539 325.467712,278.949677 
	C324.449890,279.943115 322.957611,280.450409 321.306366,281.235779 
z"/>
<path fill="#40DBF4" opacity="1.000000" stroke="none" 
	d="
M276.131348,181.948196 
	C276.521149,182.291321 276.910950,182.634445 277.254944,183.374725 
	C277.209137,183.771881 276.935974,184.060516 276.578186,183.998306 
	C274.173859,184.409149 272.127350,184.882202 270.080811,185.355255 
	C270.177094,185.680054 270.273407,186.004868 270.369690,186.329666 
	C268.224182,186.145432 266.078644,185.961182 263.933136,185.776947 
	C264.272614,187.738953 264.627258,189.698517 264.940704,191.664673 
	C265.017548,192.146484 264.959717,192.649765 264.663940,192.981979 
	C259.201813,188.569229 254.039551,184.317657 249.173859,179.857208 
	C252.669083,175.067825 257.242889,177.621216 261.139069,177.720474 
	C264.779083,177.813217 268.387177,179.161270 272.307251,180.093903 
	C273.780609,180.803406 274.955963,181.375793 276.131348,181.948196 
z"/>
<path fill="#3FE0F4" opacity="1.000000" stroke="none" 
	d="
M206.345261,189.859924 
	C206.023132,187.038818 204.474670,185.777695 201.618835,185.994598 
	C197.828064,186.282547 194.030457,186.480881 189.852997,186.579681 
	C190.330658,185.069687 191.191101,183.697739 192.368271,182.132996 
	C193.303177,181.690140 193.921356,181.440079 195.175293,181.095551 
	C199.427567,179.994461 203.024017,178.907150 206.665527,178.000946 
	C211.580246,176.777878 214.991333,178.664734 214.900375,182.762787 
	C212.482071,184.698929 210.265289,186.394684 207.813446,188.177582 
	C207.394241,188.535675 207.210098,188.806625 206.931335,189.338913 
	C206.672897,189.686783 206.509079,189.773346 206.345261,189.859924 
z"/>
<path fill="#40DBF4" opacity="1.000000" stroke="none" 
	d="
M282.117340,192.647232 
	C281.764954,192.948090 281.547211,192.964096 281.025391,192.682220 
	C280.120789,190.601807 279.521515,188.836258 278.982727,187.015427 
	C279.043213,186.960129 279.164520,186.849945 279.164520,186.849945 
	C280.193268,188.681747 281.221985,190.513565 282.117340,192.647232 
z"/>
<path fill="#61EFF4" opacity="1.000000" stroke="none" 
	d="
M276.041077,181.627518 
	C274.955963,181.375793 273.780609,180.803406 272.176208,179.827225 
	C271.153046,178.630875 270.558899,177.838333 269.964722,177.045776 
	C269.964722,177.045776 270.277924,176.724716 270.442566,176.572311 
	C272.388428,178.048889 274.169586,179.677856 276.041077,181.627518 
z"/>
<path fill="#09B7F6" opacity="1.000000" stroke="none" 
	d="
M194.493286,251.480438 
	C193.340271,250.225266 192.187256,248.970093 190.977875,247.395248 
	C190.921524,247.075592 191.011703,246.991058 191.387115,247.017426 
	C192.860062,248.348587 193.957596,249.653397 194.912277,251.086166 
	C194.769409,251.214142 194.493286,251.480438 194.493286,251.480438 
z"/>
<path fill="#40DBF4" opacity="1.000000" stroke="none" 
	d="
M277.348694,183.630432 
	C278.038849,184.389908 278.589447,185.290817 279.152283,186.520844 
	C279.164520,186.849945 279.043213,186.960129 278.650940,186.938995 
	C277.817749,185.965408 277.376862,185.012970 276.935974,184.060516 
	C276.935974,184.060516 277.209137,183.771881 277.348694,183.630432 
z"/>
<path fill="#089EF2" opacity="1.000000" stroke="none" 
	d="
M271.585632,254.284302 
	C271.453674,254.004517 271.594513,253.665359 272.029358,253.293884 
	C272.168427,253.582703 272.013428,253.903809 271.585632,254.284302 
z"/>
<path fill="#089EF2" opacity="1.000000" stroke="none" 
	d="
M270.522644,255.260376 
	C270.416809,254.982544 270.584351,254.655350 271.046570,254.315048 
	C271.159485,254.604965 270.977783,254.908005 270.522644,255.260376 
z"/>
<path fill="#089EF2" opacity="1.000000" stroke="none" 
	d="
M272.544373,253.251831 
	C272.446808,252.964828 272.657684,252.614105 273.188019,252.206772 
	C273.289246,252.496155 273.071014,252.842133 272.544373,253.251831 
z"/>
<path fill="#09B7F6" opacity="1.000000" stroke="none" 
	d="
M195.950073,251.866699 
	C195.950073,251.866699 195.478104,251.928818 195.243530,251.968628 
	C195.008942,252.008453 194.634476,251.857300 194.563873,251.668869 
	C194.493286,251.480438 194.769409,251.214142 195.102997,251.194489 
	C195.681015,251.351089 195.852173,251.581711 195.950073,251.866699 
z"/>
<path fill="#3FE0F4" opacity="1.000000" stroke="none" 
	d="
M189.207550,186.737610 
	C189.478043,186.860336 189.591400,187.082016 189.704758,187.303711 
	C189.584641,187.346832 189.464523,187.389954 189.189606,187.320343 
	C189.034805,187.207642 189.050430,186.836578 189.207550,186.737610 
z"/>
<path fill="#0A0B0C" opacity="1.000000" stroke="none" 
	d="
M289.278870,376.396851 
	C282.653656,380.719177 276.139435,381.026764 269.812073,376.901031 
	C263.542542,372.813019 260.815399,366.833771 261.962799,359.335663 
	C263.019440,352.430634 267.130005,348.033936 273.616425,345.747162 
	C281.314819,343.033081 289.989655,346.310547 294.264313,353.517944 
	C298.806488,361.176392 297.094452,369.435181 289.278870,376.396851 
M282.337524,373.056274 
	C288.938385,369.636902 291.585602,365.490845 290.434662,360.374573 
	C289.006409,354.025482 283.267273,349.978912 277.199219,351.042450 
	C271.089050,352.113373 266.806366,358.132507 267.805969,364.244354 
	C268.787872,370.247986 274.875946,374.224274 282.337524,373.056274 
z"/>
<path fill="#000203" opacity="1.000000" stroke="none" 
	d="
M206.236984,190.154388 
	C206.509079,189.773346 206.672897,189.686783 207.187042,189.280609 
	C207.707748,188.670792 207.878128,188.380615 208.048492,188.090454 
	C210.265289,186.394684 212.482071,184.698929 215.265076,182.660095 
	C226.469574,176.031418 237.625809,177.349350 248.877304,180.066086 
	C254.039551,184.317657 259.201813,188.569229 264.703094,193.299026 
	C265.739166,194.850052 266.436188,195.922821 267.133240,196.995605 
	C271.626404,205.065613 272.496704,213.692795 271.428955,223.240204 
	C271.433350,225.174286 271.090820,226.539536 270.748322,227.904800 
	C267.998169,232.030746 265.563629,236.421036 262.398987,240.199860 
	C259.820618,243.278580 256.368591,245.625656 253.117981,248.570236 
	C251.447037,249.397278 249.962112,249.951248 248.237305,250.752594 
	C247.997437,250.999954 247.976517,250.988693 247.976517,250.988693 
	C237.353806,253.762650 226.868256,254.323776 216.288315,248.907745 
	C215.832413,248.762756 215.550781,248.838638 215.377380,248.575211 
	C214.813660,248.188263 214.423370,248.064728 214.022827,247.972763 
	C214.012589,248.004333 214.051468,247.949371 213.938446,247.690857 
	C212.585953,247.155930 211.346512,246.879532 210.124939,246.279755 
	C208.828308,244.615067 207.513794,243.273758 206.199280,241.932449 
	C203.630981,236.920502 200.984604,231.946030 198.547806,226.870941 
	C197.916885,225.556946 197.942505,223.927689 197.506500,221.749542 
	C197.286682,217.047318 197.226883,213.038803 197.383301,208.837936 
	C197.637192,208.085892 197.674881,207.526199 197.712555,206.966507 
	C200.517944,201.460617 203.323318,195.954727 206.236984,190.154388 
z"/>
<path fill="#06ACF8" opacity="1.000000" stroke="none" 
	d="
M205.839157,241.825531 
	C207.513794,243.273758 208.828308,244.615067 210.273209,246.627304 
	C211.619568,247.515289 212.835510,247.732330 214.051468,247.949371 
	C214.051468,247.949371 214.012589,248.004333 214.191437,248.238831 
	C214.763779,248.595093 215.157288,248.716858 215.550781,248.838638 
	C215.550781,248.838638 215.832413,248.762756 215.916809,248.881744 
	C218.007477,253.625488 214.609329,254.132446 211.519684,254.937286 
	C209.075867,255.573883 206.657730,256.308960 203.357635,257.248047 
	C201.690475,255.946915 199.176682,253.985046 196.306488,251.944946 
	C195.852173,251.581711 195.681015,251.351089 195.245850,251.066528 
	C193.957596,249.653397 192.860062,248.348587 191.432449,246.975403 
	C191.358414,245.995438 191.458191,244.377792 191.894623,244.281189 
	C196.391510,243.285889 200.942856,242.536499 205.839157,241.825531 
z"/>
<path fill="#08AFF5" opacity="1.000000" stroke="none" 
	d="
M247.995667,250.990875 
	C248.109055,251.124939 248.224213,251.268066 248.339355,251.411194 
	C248.259598,251.358490 248.179825,251.305786 248.038300,251.120880 
	C247.976517,250.988693 247.997437,250.999954 247.995667,250.990875 
z"/>
<path fill="#05C3FD" opacity="1.000000" stroke="none" 
	d="
M271.195801,227.931885 
	C271.090820,226.539536 271.433350,225.174286 271.766663,223.451324 
	C272.503448,219.339630 273.540558,215.612854 273.894653,211.822266 
	C274.137695,209.220474 274.662628,207.986893 277.565308,207.891510 
	C279.800171,207.818069 282.004303,206.809769 284.815338,206.058685 
	C286.849091,212.327744 286.305542,219.251099 285.145203,226.574951 
	C280.527405,227.285950 276.085358,227.622467 271.195801,227.931885 
z"/>
<path fill="#11C6F7" opacity="1.000000" stroke="none" 
	d="
M197.496902,206.682236 
	C197.674881,207.526199 197.637192,208.085892 197.058716,209.076813 
	C196.333969,211.992584 196.150024,214.477127 195.966064,216.961670 
	C191.614120,217.307419 187.262161,217.653152 182.459747,217.993347 
	C182.617722,212.987976 183.361816,207.999878 183.794998,202.984924 
	C184.196671,198.334381 187.441101,198.745438 190.590881,198.765289 
	C192.771378,198.779037 194.952026,198.767929 197.894012,198.767929 
	C197.701950,201.159531 197.491592,203.778748 197.496902,206.682236 
z"/>
<path fill="#2AD2F2" opacity="1.000000" stroke="none" 
	d="
M195.983765,217.360626 
	C196.150024,214.477127 196.333969,211.992584 196.842499,209.269165 
	C197.226883,213.038803 197.286682,217.047318 197.279175,221.514404 
	C196.808411,220.568512 196.404953,219.164047 195.983765,217.360626 
z"/>
<path fill="#50E9F8" opacity="1.000000" stroke="none" 
	d="
M249.173859,179.857208 
	C237.625809,177.349350 226.469574,176.031418 215.466583,182.419693 
	C214.991333,178.664734 211.580246,176.777878 206.665527,178.000946 
	C203.024017,178.907150 199.427567,179.994461 195.411255,181.001282 
	C196.915817,179.418167 198.789566,177.796082 200.732681,176.261902 
	C202.887314,174.560745 204.898773,172.274811 208.128113,173.967026 
	C208.259659,174.035980 208.520615,174.053162 208.614075,173.971603 
	C213.488510,169.717865 220.240555,172.255157 225.474411,169.307129 
	C226.197586,168.899780 227.256683,168.072357 227.679977,168.306763 
	C231.787262,170.581161 235.730179,168.569305 239.773315,168.445679 
	C243.357361,168.336105 246.838745,169.104660 250.647446,168.161652 
	C257.788300,166.393631 261.764709,172.859283 267.163483,175.668640 
	C267.888733,176.046021 268.566833,176.513916 269.615753,176.992828 
	C270.558899,177.838333 271.153046,178.630875 271.878265,179.690125 
	C268.387177,179.161270 264.779083,177.813217 261.139069,177.720474 
	C257.242889,177.621216 252.669083,175.067825 249.173859,179.857208 
z"/>
<path fill="#2DD5F5" opacity="1.000000" stroke="none" 
	d="
M267.423767,196.829132 
	C266.436188,195.922821 265.739166,194.850052 265.002930,193.460220 
	C264.959717,192.649765 265.017548,192.146484 264.940704,191.664673 
	C264.627258,189.698517 264.272614,187.738953 263.933136,185.776947 
	C266.078644,185.961182 268.224182,186.145432 270.369690,186.329666 
	C270.273407,186.004868 270.177094,185.680054 270.080811,185.355255 
	C272.127350,184.882202 274.173859,184.409149 276.578186,183.998306 
	C277.376862,185.012970 277.817749,185.965408 278.590454,186.994293 
	C279.521515,188.836258 280.120789,190.601807 280.861755,192.689392 
	C280.395477,196.684433 278.097504,196.142532 275.504059,195.354263 
	C272.750977,194.517410 269.846161,193.492538 267.423767,196.829132 
z"/>
<path fill="#2AD2F2" opacity="1.000000" stroke="none" 
	d="
M207.813446,188.177582 
	C207.878128,188.380615 207.707748,188.670792 207.281677,189.019287 
	C207.210098,188.806625 207.394241,188.535675 207.813446,188.177582 
z"/>
<path fill="#F6F8F8" opacity="1.000000" stroke="none" 
	d="
M281.968140,373.154480 
	C274.875946,374.224274 268.787872,370.247986 267.805969,364.244354 
	C266.806366,358.132507 271.089050,352.113373 277.199219,351.042450 
	C283.267273,349.978912 289.006409,354.025482 290.434662,360.374573 
	C291.585602,365.490845 288.938385,369.636902 281.968140,373.154480 
z"/>
<path fill="#089EF2" opacity="1.000000" stroke="none" 
	d="
M213.938446,247.690857 
	C212.835510,247.732330 211.619568,247.515289 210.255341,246.950684 
	C211.346512,246.879532 212.585953,247.155930 213.938446,247.690857 
z"/>
<path fill="#089EF2" opacity="1.000000" stroke="none" 
	d="
M215.377380,248.575211 
	C215.157288,248.716858 214.763779,248.595093 214.201675,248.207260 
	C214.423370,248.064728 214.813660,248.188263 215.377380,248.575211 
z"/>
</svg>