<?xml version="1.0" encoding="UTF-8"?>
<svg version="1.1" xmlns="http://www.w3.org/2000/svg" width="500" height="500">
<path d="M0 0 C2.87897611 2.23920364 4.60354889 3.93519548 5.8828125 7.37109375 C6 10 6 10 4.41015625 12.4296875 C3.24806641 13.64011719 3.24806641 13.64011719 2.0625 14.875 C1.31097656 15.67679688 0.55945313 16.47859375 -0.21484375 17.3046875 C-2.35115675 19.37208718 -4.50316393 21.31835719 -6.75390625 23.25390625 C-12.23801189 28.00109123 -17.23513882 33.21978863 -22.2890625 38.41601562 C-34.5597332 50.86589715 -34.5597332 50.86589715 -41.125 52.125 C-45.77874818 51.97487909 -47.50479128 51.01858935 -51 48 C-55 43.57894737 -55 43.57894737 -55 41 C-55.99 40.67 -56.98 40.34 -58 40 C-58.680625 39.2575 -59.36125 38.515 -60.0625 37.75 C-65.97467206 31.58700852 -74.08086739 29.19377738 -82.3943634 28.86628723 C-84.25226753 28.86056953 -84.25226753 28.86056953 -86.14770508 28.85473633 C-86.83638168 28.85137772 -87.52505829 28.8480191 -88.23460388 28.84455872 C-90.49626503 28.8351119 -92.75785164 28.83310871 -95.01953125 28.83203125 C-96.60365325 28.82881409 -98.18777497 28.82544968 -99.77189636 28.82194519 C-103.08792814 28.81596943 -106.40393392 28.81410367 -109.7199707 28.81469727 C-113.94964579 28.81479875 -118.17915248 28.80115397 -122.40878773 28.78392506 C-125.68007662 28.77275501 -128.95132545 28.7707796 -132.22263145 28.77130699 C-133.7809984 28.77013413 -135.33936663 28.7657517 -136.89771461 28.75797462 C-150.03188552 28.69856697 -159.74708972 29.06128681 -169.5390625 38.48046875 C-175.08780516 44.53216762 -175.2988285 51.59524728 -175.29052734 59.35668945 C-175.29724457 60.26823792 -175.30396179 61.17978638 -175.31088257 62.11895752 C-175.32980072 65.11712167 -175.33378365 68.11506121 -175.3359375 71.11328125 C-175.34236973 73.20924469 -175.34909841 75.30520724 -175.35610962 77.40116882 C-175.36806695 81.7898466 -175.37179203 86.17844576 -175.37060547 90.56713867 C-175.37040238 96.17229691 -175.39770184 101.7769476 -175.43214989 107.38198566 C-175.45446008 111.71018255 -175.45844174 116.03825809 -175.45738602 120.36650658 C-175.45973586 122.4320367 -175.46852441 124.49757049 -175.48405075 126.56304359 C-175.7423145 144.95174296 -175.7423145 144.95174296 -166.7734375 160.53125 C-159.21124326 166.79421263 -150.27261197 167.14459598 -140.921875 167.0625 C-138.81575608 167.05342604 -136.70963622 167.04456583 -134.60351562 167.03588867 C-133.48759033 167.0296347 -132.37166504 167.02338074 -131.22192383 167.01693726 C-120.14814908 166.96291552 -109.07386022 166.98501857 -98 167 C-96.68410889 167.00175232 -95.36821777 167.00350464 -94.01245117 167.00531006 C-86.10721465 167.01931761 -78.20281176 167.0677327 -70.29797363 167.15258789 C-67.7709402 167.17581714 -65.24380927 167.19017507 -62.7166748 167.19555664 C-59.17503548 167.20468488 -55.63504668 167.24496607 -52.09375 167.29296875 C-50.51445709 167.28706978 -50.51445709 167.28706978 -48.90325928 167.28105164 C-44.12581563 167.37763743 -41.7594515 167.43422742 -37.84179688 170.3527832 C-36 173 -36 173 -35.4375 176.0625 C-36.14306886 179.74713738 -37.0349102 180.73261136 -40 183 C-43.30711365 183.52571106 -43.30711365 183.52571106 -47.30249023 183.56176758 C-48.03368073 183.57371155 -48.76487122 183.58565552 -49.51821899 183.59796143 C-51.94854014 183.63265331 -54.37804458 183.63887946 -56.80859375 183.64453125 C-58.53029477 183.66210441 -60.25198054 183.68123332 -61.97364807 183.701828 C-65.60785391 183.74125105 -69.24183846 183.76767263 -72.8762207 183.78393555 C-77.41415606 183.80438385 -81.95149103 183.84681426 -86.48917198 183.89802742 C-97.11673971 184.01666205 -107.74260896 184.0508947 -118.37075043 184.00995636 C-120.12903119 184.00329816 -121.88731786 183.99805272 -123.64560699 183.99419403 C-128.76964898 183.98164857 -133.89204872 183.94081909 -139.01545906 183.85822105 C-140.58306723 183.83596259 -142.15080959 183.82147038 -143.71856499 183.81565285 C-156.88508825 183.75225598 -167.50240495 181.05683092 -177.74609375 172.29296875 C-192.13479599 157.65489559 -192.16380923 139.44323837 -192.1328125 120.21875 C-192.13348892 118.714396 -192.13446174 117.21004211 -192.13571167 115.70568848 C-192.13717637 112.56582591 -192.13507636 109.42599201 -192.13037109 106.28613281 C-192.12471335 102.32389151 -192.1280435 98.36171784 -192.13379002 94.39947891 C-192.16852018 66.59395243 -192.16852018 66.59395243 -191.62890625 54.203125 C-191.60011383 53.44189331 -191.57132141 52.68066162 -191.54165649 51.8963623 C-190.89678712 39.92550937 -184.79602155 30.43712949 -176.375 22.3125 C-167.76879394 15.07997683 -157.46802731 12.88672983 -146.50097656 12.85473633 C-145.77489197 12.85137772 -145.04880737 12.8480191 -144.30072021 12.84455872 C-141.91400412 12.83510513 -139.52735863 12.83310827 -137.140625 12.83203125 C-135.46921765 12.82881423 -133.79781058 12.82544983 -132.12640381 12.82194519 C-128.62625476 12.81596749 -125.12613035 12.81410384 -121.62597656 12.81469727 C-117.16323496 12.81479868 -112.70065318 12.80116154 -108.23794937 12.78392506 C-104.78561696 12.77274927 -101.33332246 12.77077978 -97.88097382 12.77130699 C-96.23691 12.77013469 -94.59284495 12.76575553 -92.94879913 12.75797462 C-75.39355519 12.68268132 -61.3364079 14.67857535 -48 27 C-46.18203636 28.93643768 -44.59614139 30.87181148 -43 33 C-38.30673892 32.14289288 -35.924706 29.21604401 -32.75 25.875 C-31.58794578 24.67903496 -30.42389257 23.48500887 -29.2578125 22.29296875 C-28.41718262 21.43324463 -28.41718262 21.43324463 -27.55957031 20.55615234 C-25.66304163 18.66378011 -23.67481934 16.9117598 -21.625 15.1875 C-18.92635966 12.90359807 -16.61106455 10.49990096 -14.3125 7.8125 C-6.55289567 -1.22866794 -6.55289567 -1.22866794 0 0 Z " fill="#ECEEEE" transform="translate(339,116)"/>
<path d="M0 0 C2.50611844 1.96528437 4.89198013 4.00931862 7.2578125 6.140625 C7.90621094 6.68460938 8.55460937 7.22859375 9.22265625 7.7890625 C19.65730486 17.15056344 23.55973825 32.19306694 24.5078125 45.703125 C24.26682635 61.1864854 17.96815486 75.63557691 6.9375 86.40625 C-4.27628334 95.85323147 -18.14622124 101.96426284 -32.98046875 101.4140625 C-47.43391873 99.98302785 -61.81135709 93.57708537 -71.62890625 82.76953125 C-83.41244418 68.11089719 -86.6857487 53.68163755 -84.7421875 35.140625 C-83.1045859 26.08933814 -78.51212289 17.26220773 -72.7421875 10.140625 C-72.0821875 10.140625 -71.4221875 10.140625 -70.7421875 10.140625 C-70.7421875 9.480625 -70.7421875 8.820625 -70.7421875 8.140625 C-52.50892996 -11.11097937 -22.14832923 -15.01795543 0 0 Z M-60.23828125 22.99609375 C-67.20714522 32.93351276 -67.77434033 44.06874111 -66.0546875 55.765625 C-64.34283419 64.20601287 -59.46022847 70.83078877 -52.7421875 76.140625 C-42.53078018 82.23910437 -32.60792881 83.55435132 -20.8515625 81.6796875 C-10.69606716 78.96516831 -3.278993 73.00252294 2.2578125 64.140625 C7.19926849 54.16687743 7.69501439 42.58882515 4.484375 32.01171875 C0.44561769 22.5579397 -6.2241491 15.10068477 -15.7421875 11.140625 C-32.97416057 5.3223262 -48.43235985 8.67011489 -60.23828125 22.99609375 Z " fill="#06B0F6" transform="translate(263.7421875,168.859375)"/>
<path d="M0 0 C4.20778257 1.27736257 5.10809008 2.44621205 7.5 6.0625 C8.38134766 9.06103516 8.38134766 9.06103516 8.9140625 12.3515625 C9.11773437 13.54007812 9.32140625 14.72859375 9.53125 15.953125 C9.7271875 17.18546875 9.923125 18.4178125 10.125 19.6875 C10.52764521 22.13904868 10.93622434 24.5896323 11.3515625 27.0390625 C11.52510254 28.12268066 11.69864258 29.20629883 11.87744141 30.32275391 C12.37340859 33.25886722 12.37340859 33.25886722 14.5 36.0625 C14.82613281 35.36382812 15.15226562 34.66515625 15.48828125 33.9453125 C15.92527344 33.03523438 16.36226563 32.12515625 16.8125 31.1875 C17.24175781 30.28257812 17.67101562 29.37765625 18.11328125 28.4453125 C19.5 26.0625 19.5 26.0625 22.5 24.0625 C26.4567691 24.20638251 28.77118405 24.50187234 31.9375 26.9375 C33.5 29.0625 33.5 29.0625 33.5 32.0625 C34.16 32.0625 34.82 32.0625 35.5 32.0625 C35.5 33.0525 35.5 34.0425 35.5 35.0625 C36.16 34.7325 36.82 34.4025 37.5 34.0625 C38.30164369 31.33761352 38.30164369 31.33761352 38.90234375 28.015625 C39.15306641 26.778125 39.40378906 25.540625 39.66210938 24.265625 C39.92165094 22.94812857 40.18010439 21.63041735 40.4375 20.3125 C40.93779086 17.75346749 41.4465951 15.19608125 41.96484375 12.640625 C42.187771 11.50012695 42.41069824 10.35962891 42.64038086 9.18457031 C43.52201563 5.98254094 44.50500046 3.71367417 46.5 1.0625 C50.10696236 0.01320186 52.34718435 -0.39255881 55.875 1 C58.58115096 4.43473006 58.69197211 8.83621958 58.32504272 13.09146118 C57.98868195 15.18811958 57.58026036 17.25543604 57.13671875 19.33203125 C56.98467484 20.09368088 56.83263092 20.85533051 56.67597961 21.64006042 C56.19147534 24.05424239 55.69001802 26.46451034 55.1875 28.875 C54.86146065 30.47958051 54.53658153 32.08439722 54.21289062 33.68945312 C53.74128139 36.02592848 53.26837731 38.36206927 52.78942871 40.697052 C51.75955683 45.72073513 50.80535728 50.75196104 49.94213867 55.80737305 C48.99541054 60.63615701 47.98298687 65.37496321 44.6875 69.125 C41.64948579 70.42700609 39.77613904 70.59737984 36.5 70.0625 C31.02049462 66.45404524 29.68395303 60.84453942 27.61328125 54.828125 C26.80525763 51.93899315 26.80525763 51.93899315 24.5 51.0625 C23.91992188 52.61710937 23.91992188 52.61710937 23.328125 54.203125 C22.80264306 55.57313149 22.27657011 56.94291139 21.75 58.3125 C21.49734375 58.99441406 21.2446875 59.67632812 20.984375 60.37890625 C19.42515262 64.39390388 17.98530031 67.33337925 14.5 70.0625 C11.5625 70.625 11.5625 70.625 8.5 70.0625 C4.28302739 66.56971873 2.74135207 63.86440184 1.5625 58.5625 C1.41192139 57.9032251 1.26134277 57.2439502 1.10620117 56.56469727 C0.54685243 54.06865505 0.02313613 51.56638836 -0.5 49.0625 C-0.74427734 47.91765137 -0.98855469 46.77280273 -1.24023438 45.59326172 C-2.59373778 39.2427745 -3.92722931 32.88834276 -5.23046875 26.52734375 C-5.45114014 25.450896 -5.67181152 24.37444824 -5.89916992 23.26538086 C-9.02183791 6.61918769 -9.02183791 6.61918769 -5.9375 1.4375 C-3.5 0.0625 -3.5 0.0625 0 0 Z M35.5 36.0625 C36.16 36.7225 36.82 37.3825 37.5 38.0625 C37.5 37.4025 37.5 36.7425 37.5 36.0625 C36.84 36.0625 36.18 36.0625 35.5 36.0625 Z " fill="#EAECED" transform="translate(328.5,327.9375)"/>
<path d="M0 0 C2.74226996 2.03861796 4.01482748 3.75802864 5.19140625 6.9609375 C5.06640625 9.8984375 5.06640625 9.8984375 3.37890625 12.2109375 C-0.07340418 14.73019105 -0.07340418 14.73019105 -2.93359375 14.8984375 C-3.82304687 14.57875 -4.7125 14.2590625 -5.62890625 13.9296875 C-12.36945799 11.82625291 -20.12433275 11.59067807 -26.55859375 14.5859375 C-31.1594118 19.06568139 -33.73229566 22.45511137 -34.93359375 28.8984375 C-34.83069462 35.38108271 -33.17087265 39.94261754 -28.93359375 44.8984375 C-23.91898261 49.59466063 -19.2890579 50.43540261 -12.546875 50.26953125 C-9.75528795 49.87311754 -7.49857956 49.04921492 -4.93359375 47.8984375 C-4.60359375 45.5884375 -4.27359375 43.2784375 -3.93359375 40.8984375 C-5.17109375 40.9396875 -6.40859375 40.9809375 -7.68359375 41.0234375 C-13.4705633 40.98254019 -13.4705633 40.98254019 -15.93359375 38.8984375 C-17.37109375 36.0859375 -17.37109375 36.0859375 -17.93359375 32.8984375 C-16.62492311 29.95392856 -15.83956512 28.35142319 -12.93359375 26.8984375 C-10.00053624 26.69394146 -7.11944314 26.57453614 -4.18359375 26.5234375 C-3.384375 26.48605469 -2.58515625 26.44867188 -1.76171875 26.41015625 C2.45581313 26.34772568 4.77702956 26.74652277 8.5859375 28.74609375 C11.80614184 31.90693432 11.92383733 35.40885114 12.05322266 39.75634766 C12.02881104 41.21886963 12.02881104 41.21886963 12.00390625 42.7109375 C11.99278809 43.70399902 11.98166992 44.69706055 11.97021484 45.72021484 C11.7194743 51.21006503 11.40722363 55.10714533 7.19140625 59.0234375 C4.67578125 60.625 4.67578125 60.625 2.06640625 61.8984375 C0.92945313 62.55972656 0.92945313 62.55972656 -0.23046875 63.234375 C-8.06988675 67.154084 -17.28460783 67.08977392 -25.73046875 65.30859375 C-33.85547356 62.5010682 -42.45720645 56.49086529 -46.49609375 48.7734375 C-47.01119855 47.49567754 -47.49386347 46.20405642 -47.93359375 44.8984375 C-48.32546875 43.8465625 -48.71734375 42.7946875 -49.12109375 41.7109375 C-51.24129925 31.76228092 -51.76483649 24.04328983 -46.93359375 14.8984375 C-46.52109375 14.0321875 -46.10859375 13.1659375 -45.68359375 12.2734375 C-35.03152713 -2.18293863 -16.57579141 -9.44317814 0 0 Z " fill="#EBEDEE" transform="translate(159.93359375,332.1015625)"/>
<path d="M0 0 C5.73926486 4.6104021 8.51524095 9.56525411 10.8125 16.45703125 C11.65618982 27.09305541 10.69764794 35.75709962 4.0625 44.33203125 C-1.6435461 50.44051889 -9.82782947 53.09968121 -18 53.76953125 C-24.77106795 53.59794473 -32.80387002 51.41770748 -37.96875 46.8984375 C-45.03331416 39.17558441 -47.96820779 30.85748658 -47.57421875 20.3828125 C-46.59648528 12.98561684 -43.59582138 6.63020823 -38.1875 1.45703125 C-25.98640512 -6.97461969 -12.64268355 -8.91760715 0 0 Z M-31.5625 12.89453125 C-34.70583883 17.8513348 -35.70731261 21.53116749 -35.1875 27.45703125 C-33.20832568 32.66538472 -30.15868025 36.68179777 -25.32421875 39.5703125 C-20.7121718 41.48426983 -15.54119074 41.35673556 -10.8984375 39.58203125 C-6.18644162 36.89954671 -2.81049353 33.7114728 -1.1875 28.45703125 C-0.41838033 23.40968339 -0.57583399 19.68036327 -2.875 15.08203125 C-7.24526247 10.12119277 -11.35801192 6.96762966 -18 6.08203125 C-23.50668843 6.72987695 -27.70300927 8.93347498 -31.5625 12.89453125 Z " fill="#E7E9EA" transform="translate(296.1875,337.54296875)"/>
<path d="M0 0 C2.50611844 1.96528437 4.89198013 4.00931862 7.2578125 6.140625 C7.90621094 6.68460938 8.55460937 7.22859375 9.22265625 7.7890625 C17.29477244 15.03100481 21.51173865 25.45933437 22.2578125 36.140625 C22.44529967 42.80847229 22.37537559 49.47218534 22.2578125 56.140625 C21.9278125 56.140625 21.5978125 56.140625 21.2578125 56.140625 C20.9278125 49.870625 20.5978125 43.600625 20.2578125 37.140625 C18.2778125 36.645625 18.2778125 36.645625 16.2578125 36.140625 C16.2578125 34.820625 16.2578125 33.500625 16.2578125 32.140625 C15.2678125 32.140625 14.2778125 32.140625 13.2578125 32.140625 C11.3988002 30.56761459 10.34971292 29.32442583 9.2578125 27.140625 C8.2678125 30.110625 8.2678125 30.110625 7.2578125 33.140625 C6.9690625 32.521875 6.6803125 31.903125 6.3828125 31.265625 C5.32061208 29.00736735 5.32061208 29.00736735 3.2578125 27.140625 C3.2578125 26.150625 3.2578125 25.160625 3.2578125 24.140625 C2.5359375 24.099375 1.8140625 24.058125 1.0703125 24.015625 C-2.26290197 22.97862494 -2.9925848 21.51628785 -5.04296875 18.83203125 C-11.91779476 11.98881364 -22.33564714 9.5697155 -31.6796875 8.828125 C-37.43158847 8.98917823 -43.28391052 10.61261386 -48.16796875 13.6484375 C-51.0228491 15.30331503 -53.52909965 15.98591789 -56.7421875 16.703125 C-60.58411318 17.57049853 -64.11852133 18.58857681 -67.7421875 20.140625 C-67.7009375 19.439375 -67.6596875 18.738125 -67.6171875 18.015625 C-67.57750155 15.05038479 -67.57750155 15.05038479 -68.9921875 12.203125 C-69.7421875 9.140625 -69.7421875 9.140625 -68.5546875 6.203125 C-53.08685543 -13.57286164 -19.19229887 -13.01358157 0 0 Z " fill="#54F1FC" transform="translate(263.7421875,168.859375)"/>
<path d="M0 0 C3.15333658 0.85402866 4.06896128 1.27909915 6 3.8125 C6.39872742 6.07145691 6.39872742 6.07145691 6.43237305 8.74291992 C6.46206429 10.24413643 6.46206429 10.24413643 6.49235535 11.77568054 C6.49874527 12.85388565 6.50513519 13.93209076 6.51171875 15.04296875 C6.52966995 16.14852615 6.54762115 17.25408356 6.56611633 18.3931427 C6.62035427 21.92872285 6.65415892 25.46416696 6.6875 29 C6.72066109 31.39520128 6.7551496 33.79038457 6.79101562 36.18554688 C6.87608846 42.06107594 6.94438118 47.93662232 7 53.8125 C7.81154541 53.79678955 8.62309082 53.7810791 9.45922852 53.76489258 C13.16024724 53.70227093 16.86115417 53.66342228 20.5625 53.625 C21.83931641 53.59986328 23.11613281 53.57472656 24.43164062 53.54882812 C36.46389916 53.45507027 36.46389916 53.45507027 42 56.8125 C43.42041821 59.65333641 43.31452272 61.66727278 43 64.8125 C41.1329009 67.11525556 39.64352259 68.49073871 37 69.8125 C34.21426335 69.92379479 31.4543091 69.97661788 28.66796875 69.98046875 C27.83920731 69.98379715 27.01044586 69.98712555 26.15657043 69.99055481 C24.40052852 69.99562271 22.64447696 69.99796318 20.88842773 69.99780273 C18.20865857 69.99998279 15.52930531 70.01812193 12.84960938 70.03710938 C11.14323057 70.04004465 9.43684982 70.04202855 7.73046875 70.04296875 C6.93134567 70.05015427 6.1322226 70.05733978 5.30888367 70.06474304 C-2.50471833 70.03285846 -2.50471833 70.03285846 -6 67.8125 C-10.14662084 62.36729933 -9.43273126 55.90155257 -9.3984375 49.37109375 C-9.40130768 48.17065933 -9.40417786 46.97022491 -9.40713501 45.7334137 C-9.40917268 43.2009331 -9.40366371 40.66843665 -9.39111328 38.13598633 C-9.37504238 34.26022183 -9.39098041 30.38549797 -9.41015625 26.50976562 C-9.40817404 24.0468727 -9.40433083 21.58398042 -9.3984375 19.12109375 C-9.40451019 17.96266464 -9.41058289 16.80423553 -9.4168396 15.61070251 C-9.40738312 14.52930496 -9.39792664 13.44790741 -9.38818359 12.33374023 C-9.38579681 11.38587143 -9.38341003 10.43800262 -9.38095093 9.46141052 C-8.9214854 6.26655528 -7.89427206 4.40911702 -6 1.8125 C-3 -0.1875 -3 -0.1875 0 0 Z " fill="#E9EBEB" transform="translate(196,328.1875)"/>
<path d="M0 0 C1.04481033 -0.00960754 2.08962067 -0.01921509 3.16609192 -0.02911377 C4.29939438 -0.03336365 5.43269684 -0.03761353 6.6003418 -0.04199219 C8.34289497 -0.0505423 8.34289497 -0.0505423 10.12065125 -0.05926514 C12.58286627 -0.06872515 15.04509402 -0.07525308 17.50732422 -0.07910156 C21.27358127 -0.08880029 25.0392912 -0.11981227 28.80541992 -0.15136719 C31.19539063 -0.15789774 33.58536526 -0.163148 35.9753418 -0.16699219 C37.10257156 -0.17933899 38.22980133 -0.19168579 39.39118958 -0.20440674 C40.9725898 -0.19990509 40.9725898 -0.19990509 42.5859375 -0.1953125 C43.97254326 -0.20078094 43.97254326 -0.20078094 45.38716125 -0.20635986 C48.53517949 0.23860877 50.42166815 1.31315934 52.98706055 3.16113281 C54.43136909 6.04974991 54.3639456 7.95760982 53.98706055 11.16113281 C52.32653087 13.6874919 51.5515816 14.72798227 48.98706055 16.16113281 C44.86245158 16.89635125 40.78780678 16.81371883 36.6081543 16.75488281 C34.80182274 16.75494324 34.80182274 16.75494324 32.95899963 16.75500488 C30.41629815 16.7496489 27.87359713 16.7320632 25.33105469 16.703125 C21.43527768 16.66124801 17.54122793 16.66205894 13.64526367 16.66894531 C11.17454851 16.65845374 8.70384227 16.64551582 6.2331543 16.62988281 C5.06642685 16.6296814 3.8996994 16.62947998 2.69761658 16.62927246 C1.07056541 16.60540466 1.07056541 16.60540466 -0.58935547 16.58105469 C-1.54246109 16.5726355 -2.49556671 16.56421631 -3.47755432 16.55554199 C-6.48425507 16.08781409 -7.84748835 15.27779307 -10.01293945 13.16113281 C-11.01293945 9.78613281 -11.01293945 9.78613281 -11.01293945 6.16113281 C-7.85314035 1.14903768 -5.73676721 0.04248366 0 0 Z " fill="#E4E6E7" transform="translate(176.012939453125,98.8388671875)"/>
<path d="M0 0 C0.92461029 -0.00953201 1.84922058 -0.01906403 2.80184937 -0.02888489 C4.29719711 -0.02751778 4.29719711 -0.02751778 5.82275391 -0.02612305 C6.84986481 -0.03040817 7.87697571 -0.0346933 8.93521118 -0.03910828 C11.10898094 -0.04485364 13.28276994 -0.04535033 15.45654297 -0.04101562 C18.77946906 -0.03786064 22.10150075 -0.06129551 25.42431641 -0.08666992 C27.53629445 -0.08894341 29.64827489 -0.08964618 31.76025391 -0.08862305 C32.75310394 -0.09783279 33.74595398 -0.10704254 34.76889038 -0.11653137 C43.46363571 -0.05835445 43.46363571 -0.05835445 47.42431641 3.2746582 C48.92431641 5.5871582 48.92431641 5.5871582 49.42431641 8.2746582 C48.30435744 11.44787527 47.49486668 13.59526243 44.60020447 15.43228149 C42.1659952 16.37466508 40.34084856 16.54069054 37.73510742 16.56518555 C36.34830528 16.5843251 36.34830528 16.5843251 34.93348694 16.60385132 C33.44588112 16.60718979 33.44588112 16.60718979 31.92822266 16.6105957 C30.38967873 16.6205809 30.38967873 16.6205809 28.8200531 16.63076782 C26.65227043 16.64088633 24.48445666 16.64558509 22.31665039 16.64526367 C19.00240755 16.64963763 15.68949564 16.68596882 12.37548828 16.72387695 C10.26807096 16.7297451 8.16064731 16.73371451 6.05322266 16.7355957 C5.06350967 16.74996674 4.07379669 16.76433777 3.05409241 16.77914429 C-1.32516252 16.7500971 -3.86757224 16.70303631 -7.67749023 14.39819336 C-9.91841935 11.89123498 -10.57568359 10.63968966 -10.57568359 7.2746582 C-8.19999786 2.16693388 -5.64658715 0.0319919 0 0 Z " fill="#E2E4E5" transform="translate(308.57568359375,232.725341796875)"/>
<path d="M0 0 C1.00208496 -0.0038269 2.00416992 -0.00765381 3.03662109 -0.01159668 C5.15137743 -0.01431382 7.26616749 -0.00696657 9.38085938 0.00976562 C12.61404494 0.03117745 15.84500838 0.00995657 19.078125 -0.015625 C21.13542156 -0.01298169 23.19271674 -0.00785665 25.25 0 C26.21470215 -0.00809692 27.1794043 -0.01619385 28.17333984 -0.02453613 C32.51146186 0.03594098 34.95943545 0.11937409 38.71484375 2.44335938 C40.72192757 4.63719639 41.53540103 5.57448388 41.625 8.53125 C40.54607558 12.55269557 39.1313804 14.35249359 35.625 16.53125 C33.42456055 16.9054718 33.42456055 16.9054718 31.01171875 16.90356445 C29.6501062 16.91290764 29.6501062 16.91290764 28.26098633 16.92243958 C26.8014856 16.90862495 26.8014856 16.90862495 25.3125 16.89453125 C24.30662842 16.89502975 23.30075684 16.89552826 22.2644043 16.89604187 C20.13946556 16.89370322 18.01452397 16.88398702 15.88964844 16.86743164 C12.6371178 16.8438379 9.38540698 16.84687266 6.1328125 16.85351562 C4.06770345 16.84793874 2.00259784 16.8408288 -0.0625 16.83203125 C-1.03550049 16.83294266 -2.00850098 16.83385406 -3.01098633 16.83479309 C-3.91872803 16.82526108 -4.82646973 16.81572906 -5.76171875 16.8059082 C-6.95607544 16.79899712 -6.95607544 16.79899712 -8.17456055 16.79194641 C-10.65397904 16.49819804 -12.2629665 15.85005391 -14.375 14.53125 C-15.94200442 11.39724115 -16.22664561 7.89969905 -15.375 4.53125 C-10.88752075 -0.46091078 -6.2635632 -0.05257125 0 0 Z " fill="#EAECED" transform="translate(317.375,201.46875)"/>
<path d="M0 0 C11.96926947 5.65289223 20.15091313 14.79207524 25 27 C28.19696281 36.85092848 27.18026872 47.77475754 27 58 C26.67 58 26.34 58 26 58 C25.67 51.73 25.34 45.46 25 39 C23.02 38.505 23.02 38.505 21 38 C21 36.68 21 35.36 21 34 C20.01 34 19.02 34 18 34 C16.1409877 32.42698959 15.09190042 31.18380083 14 29 C13.34 30.98 12.68 32.96 12 35 C11.71125 34.38125 11.4225 33.7625 11.125 33.125 C10.06279958 30.86674235 10.06279958 30.86674235 8 29 C8 28.01 8 27.02 8 26 C7.278125 25.95875 6.55625 25.9175 5.8125 25.875 C2.47928553 24.83799994 1.7496027 23.37566285 -0.30078125 20.69140625 C-7.17560726 13.84818864 -17.59345964 11.4290905 -26.9375 10.6875 C-33.96041589 10.88414165 -40.07890849 13.41145969 -46 17 C-46.99 16.67 -47.98 16.34 -49 16 C-48.34 14.02 -47.68 12.04 -47 10 C-44.23735711 9.40267181 -41.83967231 9 -39 9 C-39 9.66 -39 10.32 -39 11 C-38.01 11 -37.02 11 -36 11 C-36 10.34 -36 9.68 -36 9 C-31.35645033 7.7128895 -26.72921926 7.52926153 -21.9375 7.25 C-20.57141602 7.14751953 -20.57141602 7.14751953 -19.17773438 7.04296875 C-18.30310547 6.99269531 -17.42847656 6.94242188 -16.52734375 6.890625 C-15.33226196 6.81376465 -15.33226196 6.81376465 -14.11303711 6.73535156 C-11.46960115 7.06643008 -10.65128739 7.97406747 -9 10 C-8.67 8.35 -8.34 6.7 -8 5 C-7.484375 5.185625 -6.96875 5.37125 -6.4375 5.5625 C-3.14091261 6.15419517 -0.27754265 5.567267 3 5 C2.04134491 2.66924071 2.04134491 2.66924071 -1 1 C-0.67 0.67 -0.34 0.34 0 0 Z " fill="#40E0F7" transform="translate(259,167)"/>
<path d="M0 0 C4.47649461 0.70681494 5.9053669 1.93913668 8.5625 5.5625 C9.1875 8.0625 9.1875 8.0625 8.5625 10.5625 C6.95088493 12.42592993 5.39144345 13.93677249 3.5625 15.5625 C-0.4393516 19.44714256 -4.32706707 23.37161326 -7.9375 27.625 C-18.55518624 39.97171312 -18.55518624 39.97171312 -25.3125 41 C-28.4375 40.5625 -28.4375 40.5625 -31.375 38.4375 C-33.4375 35.5625 -33.4375 35.5625 -33.6875 32.75 C-31.86044955 28.09102136 -28.90784063 25.11198875 -25.4375 21.5625 C-24.11878906 20.20318359 -24.11878906 20.20318359 -22.7734375 18.81640625 C-17.86416085 13.80913154 -12.81786597 9.06443887 -7.4375 4.5625 C-6.7775 3.77875 -6.1175 2.995 -5.4375 2.1875 C-3.4375 0.5625 -3.4375 0.5625 0 0 Z " fill="#E6E9EA" transform="translate(349.4375,145.4375)"/>
<path d="M0 0 C2.4375 2.25 2.4375 2.25 4 5 C3.55125543 9.85541626 1.44333967 14.42826815 -0.3125 18.9375 C-0.60833984 19.72318359 -0.90417969 20.50886719 -1.20898438 21.31835938 C-3.37371614 26.90551804 -5.70985239 31.70985239 -10 36 C-13.68592444 36.49145659 -15.60902482 36.1996469 -18.9375 34.5 C-21 32 -21 32 -20.87109375 28.44921875 C-20.08648815 23.41194779 -18.16891777 18.95343873 -16.125 14.3125 C-15.77308594 13.48427734 -15.42117188 12.65605469 -15.05859375 11.80273438 C-11.41656022 3.34753014 -11.41656022 3.34753014 -9 0 C-5.39297148 -1.20234284 -3.64185324 -1.0405295 0 0 Z " fill="#E6E8E9" transform="translate(304,87)"/>
<path d="M0 0 C4.62115385 1.36923077 4.62115385 1.36923077 6.375 4 C7.94774103 9.01362849 7.59923156 14.23549718 7.625 19.4375 C7.645625 20.47455078 7.66625 21.51160156 7.6875 22.58007812 C7.73698372 32.21084659 7.73698372 32.21084659 4.375 36 C0.72542774 37.94643854 -0.8812405 38.21454601 -4.875 37.0625 C-8.34449424 34.46037932 -8.97662181 32.12261225 -9.625 28 C-9.83250837 24.11011555 -9.72294623 20.26520401 -9.5625 16.375 C-9.54767578 15.35148437 -9.53285156 14.32796875 -9.51757812 13.2734375 C-9.33186297 8.43854802 -9.19093051 5.77922091 -6.29296875 1.7890625 C-3.625 0 -3.625 0 0 0 Z " fill="#E9EBEB" transform="translate(251.625,77)"/>
<path d="M0 0 C3.17455322 3.43194943 4.80052482 6.82721065 5.3125 11.5 C3.31698316 15.90676635 0.47763822 19.03878196 -3.6875 21.5 C-7.79743715 22.16289309 -10.11287504 22.4533862 -13.6875 20.2890625 C-16.85756799 17.68696502 -19.12916597 15.34642449 -20.6875 11.5 C-20.56975002 6.08350095 -18.50578209 3.23343138 -14.6875 -0.5 C-9.30580996 -3.133593 -5.20858906 -2.90711948 0 0 Z " fill="#E4E6E7" transform="translate(285.6875,351.5)"/>
<path d="M0 0 C0.61875 0.33 1.2375 0.66 1.875 1 C3.91018344 2.14193235 3.91018344 2.14193235 6 2 C6.33 1.34 6.66 0.68 7 0 C16.41898351 11.23998699 18.19741291 22.21998782 18.0625 36.5 C18.05798828 37.4178125 18.05347656 38.335625 18.04882812 39.28125 C18.03716326 41.52090391 18.02079614 43.76041545 18 46 C17.67 46 17.34 46 17 46 C16.505 36.595 16.505 36.595 16 27 C14.68 26.67 13.36 26.34 12 26 C12 24.68 12 23.36 12 22 C11.01 22 10.02 22 9 22 C7.1409877 20.42698959 6.09190042 19.18380083 5 17 C4.34 18.98 3.68 20.96 3 23 C2.71125 22.38125 2.4225 21.7625 2.125 21.125 C1.06279958 18.86674235 1.06279958 18.86674235 -1 17 C-1 16.01 -1 15.02 -1 14 C-1.66 14 -2.32 14 -3 14 C-6.07692308 8.58461538 -6.07692308 8.58461538 -5.6875 5.625 C-5.460625 5.08875 -5.23375 4.5525 -5 4 C-4.0409375 3.8453125 -4.0409375 3.8453125 -3.0625 3.6875 C-2.381875 3.460625 -1.70125 3.23375 -1 3 C-0.67 2.01 -0.34 1.02 0 0 Z " fill="#26D7F9" transform="translate(268,179)"/>
<path d="M0 0 C0.66 0.33 1.32 0.66 2 1 C3.15014372 4.45043117 4 7.35282355 4 11 C6.31 10.01 8.62 9.02 11 8 C11.33 9.32 11.66 10.64 12 12 C11.01 12 10.02 12 9 12 C8.87625 12.639375 8.7525 13.27875 8.625 13.9375 C8.41875 14.618125 8.2125 15.29875 8 16 C7.34 16.33 6.68 16.66 6 17 C5.08968728 19.34386809 5.08968728 19.34386809 4.375 22.0625 C4.11460937 22.98160156 3.85421875 23.90070313 3.5859375 24.84765625 C3.39257812 25.55792969 3.19921875 26.26820313 3 27 C1 24 1 24 1 22 C-0.98 22.33 -2.96 22.66 -5 23 C-5.66 22.01 -6.32 21.02 -7 20 C-8.96301592 23.50538557 -9.95902388 27.13351728 -11 31 C-11.33 31 -11.66 31 -12 31 C-12.97458014 21.83172754 -10.65134343 15.83204151 -6 8 C-5.5978125 7.31035156 -5.195625 6.62070313 -4.78125 5.91015625 C-3.75 4.25 -3.75 4.25 -2 2 C-1.34 2 -0.68 2 0 2 C0 1.34 0 0.68 0 0 Z " fill="#25D9F8" transform="translate(193,177)"/>
<path d="M0 0 C3.5060303 0.86943897 4.94966563 2.56083702 6.9375 5.48046875 C7.5625 8.98046875 7.5625 8.98046875 6.9375 12.48046875 C4.875 15.41796875 4.875 15.41796875 1.9375 17.48046875 C-2.25781196 17.9956825 -5.54384029 17.95656262 -9.0625 15.48046875 C-11.56281654 11.72999393 -11.59853554 9.92190609 -11.0625 5.48046875 C-8.01136975 0.99912119 -5.26455839 -0.36891792 0 0 Z " fill="#E9EBEB" transform="translate(320.0625,263.51953125)"/>
<path d="M0 0 C0.763125 0.20625 1.52625 0.4125 2.3125 0.625 C1.9825 1.615 1.6525 2.605 1.3125 3.625 C2.3025 3.955 3.2925 4.285 4.3125 4.625 C4.3125 5.285 4.3125 5.945 4.3125 6.625 C5.3025 6.295 6.2925 5.965 7.3125 5.625 C9.3125 8.625 9.3125 8.625 9.0625 11.125 C6.22641876 15.17654463 1.93593763 15.46369698 -2.6875 16.625 C-4.36548788 17.26263539 -6.04043725 17.91127281 -7.6875 18.625 C-7.64625 17.92375 -7.605 17.2225 -7.5625 16.5 C-7.52281405 13.53475979 -7.52281405 13.53475979 -8.9375 10.6875 C-9.6875 7.625 -9.6875 7.625 -8 4.375 C-3.86725402 -0.53961684 -3.86725402 -0.53961684 0 0 Z " fill="#36E0F8" transform="translate(203.6875,170.375)"/>
<path d="M0 0 C1.34919532 1.65385233 2.68133728 3.321702 4 5 C4.886875 5.350625 5.77375 5.70125 6.6875 6.0625 C7.450625 6.371875 8.21375 6.68125 9 7 C9.8125 9.125 9.8125 9.125 10 11 C7.50309692 10.0074699 5.0125434 9.00526783 2.53515625 7.96484375 C-8.4717031 3.39169366 -17.80435158 2.69546621 -29 7 C-30.66979326 7.99477045 -32.33779419 8.99260254 -34 10 C-34.99 9.67 -35.98 9.34 -37 9 C-36.34 7.02 -35.68 5.04 -35 3 C-32.23735711 2.40267181 -29.83967231 2 -27 2 C-27 2.66 -27 3.32 -27 4 C-26.01 4 -25.02 4 -24 4 C-24 3.34 -24 2.68 -24 2 C-20.07670696 0.78418783 -16.07203535 0.66249471 -12 0.4375 C-11.2884375 0.39431641 -10.576875 0.35113281 -9.84375 0.30664062 C-6.55377209 0.11329304 -3.29699107 0 0 0 Z " fill="#50CBE1" transform="translate(247,174)"/>
<path d="M0 0 C0.969375 0.86625 1.93875 1.7325 2.9375 2.625 C14.03830383 12.08871559 23.27909983 15.01523449 38 14 C43.65177531 12.93252368 48.12967404 11.04395373 53 8 C53.66 8.33 54.32 8.66 55 9 C53.62657878 12.37466683 52.42953282 13.71613303 49.1171875 15.2265625 C43.47873832 17.53207176 38.14145985 17.52117997 32.125 17.375 C30.578125 17.37306641 30.578125 17.37306641 29 17.37109375 C21.42310527 17.28207018 21.42310527 17.28207018 18 15 C15.73703813 14.2169824 13.45482922 13.54932519 11.15625 12.87890625 C8.81025278 11.92265738 7.73255655 10.8047464 6 9 C5.01 8.67 4.02 8.34 3 8 C1.76132839 5.38502661 0.91496017 2.74488051 0 0 Z " fill="#107EB4" transform="translate(202,236)"/>
<path d="M0 0 C-0.53109375 0.54527344 -1.0621875 1.09054688 -1.609375 1.65234375 C-10.1069214 10.7236296 -13.2145849 18.87795353 -13.1015625 31.25390625 C-12.93142168 35.85425225 -12.48721105 40.42369621 -12 45 C-12.66 45 -13.32 45 -14 45 C-16.18232683 39.67894812 -16.34680696 34.90748112 -16.3125 29.25 C-16.31048584 28.36127197 -16.30847168 27.47254395 -16.30639648 26.55688477 C-16.21043061 20.29037083 -15.46464809 14.8104398 -13 9 C-12.67 8.01 -12.34 7.02 -12 6 C-12 6.66 -12 7.32 -12 8 C-11.34 8 -10.68 8 -10 8 C-9.67 6.68 -9.34 5.36 -9 4 C-8.01 4 -7.02 4 -6 4 C-6 2.68 -6 1.36 -6 0 C-3 -1 -3 -1 0 0 Z " fill="#197FA2" transform="translate(211,185)"/>
<path d="M0 0 C2.9469554 1.37788295 5.47050895 2.97477845 8.0625 4.9375 C8.73410156 5.44152344 9.40570313 5.94554687 10.09765625 6.46484375 C13.83289822 9.47911499 15.34148267 11.12697172 16 16 C13.69 14.68 11.38 13.36 9 12 C9 12.99 9 13.98 9 15 C8.34 14.67 7.68 14.34 7 14 C6.375 11.4375 6.375 11.4375 6 9 C2.67778618 7.89259539 0.35896892 8.02766689 -3 9 C-3.66 9.66 -4.32 10.32 -5 11 C-5.66 10.67 -6.32 10.34 -7 10 C-7.66 10.66 -8.32 11.32 -9 12 C-8.67 9.69 -8.34 7.38 -8 5 C-7.484375 5.185625 -6.96875 5.37125 -6.4375 5.5625 C-3.14091261 6.15419517 -0.27754265 5.567267 3 5 C2.04134491 2.66924071 2.04134491 2.66924071 -1 1 C-0.67 0.67 -0.34 0.34 0 0 Z " fill="#48E9F9" transform="translate(259,167)"/>
<path d="M0 0 C5.73344559 4.91438194 9.72239607 11.57104038 10.8125 19.125 C10.874375 20.07375 10.93625 21.0225 11 22 C9.5 20.8125 9.5 20.8125 8 19 C7.8125 16.3125 7.8125 16.3125 8 14 C6.68 14 5.36 14 4 14 C4 12.68 4 11.36 4 10 C2.35 10.33 0.7 10.66 -1 11 C-1.268125 10.360625 -1.53625 9.72125 -1.8125 9.0625 C-2.88667752 6.66868314 -2.88667752 6.66868314 -6 6 C-5.34 5.67 -4.68 5.34 -4 5 C-3.34 4.01 -2.68 3.02 -2 2 C-1.34 2 -0.68 2 0 2 C0 1.34 0 0.68 0 0 Z " fill="#31DAF8" transform="translate(274,179)"/>
<path d="M0 0 C0.33 0 0.66 0 1 0 C1.06058594 1.07378906 1.12117187 2.14757812 1.18359375 3.25390625 C1.26807651 4.69011315 1.35272054 6.12631058 1.4375 7.5625 C1.47681641 8.26697266 1.51613281 8.97144531 1.55664062 9.69726562 C1.92794716 15.89522861 2.71538371 21.93298738 4.0625 28 C4.91101098 32.11056432 5.1820274 35.81336972 5 40 C-0.8629413 34.1370587 -1.23931891 25.31684339 -1.32568359 17.48730469 C-1.26813441 4.44708635 -1.26813441 4.44708635 0 0 Z " fill="#137DA7" transform="translate(180,200)"/>
<path d="M0 0 C-0.99 0.66 -1.98 1.32 -3 2 C-3.99 1.67 -4.98 1.34 -6 1 C-6.99 1.33 -7.98 1.66 -9 2 C-9.495 0.515 -9.495 0.515 -10 -1 C-11.134375 -1.144375 -12.26875 -1.28875 -13.4375 -1.4375 C-17 -2 -17 -2 -18 -3 C-21.24231048 -3.25185049 -24.4990677 -3.1852298 -27.75 -3.1875 C-28.6575 -3.19974609 -29.565 -3.21199219 -30.5 -3.22460938 C-35.23556853 -3.23499439 -38.61943927 -2.92257943 -43 -1 C-45.3125 -1.375 -45.3125 -1.375 -47 -2 C-30.37082079 -8.2815112 -15.9722654 -6.86907447 0 0 Z " fill="#4EA5AC" transform="translate(259,166)"/>
<path d="M0 0 C1.65 0 3.3 0 5 0 C5.66666667 2 6.33333333 4 7 6 C7.350625 6.845625 7.70125 7.69125 8.0625 8.5625 C9.33177846 13.21652101 9.21396701 17.57762534 9.125 22.375 C9.11597656 23.30183594 9.10695313 24.22867188 9.09765625 25.18359375 C9.07422937 27.45600077 9.04142748 29.7278618 9 32 C8.67 32 8.34 32 8 32 C7.67 25.73 7.34 19.46 7 13 C5.68 12.67 4.36 12.34 3 12 C3 10.68 3 9.36 3 8 C2.01 8 1.02 8 0 8 C-1.6875 6.5 -1.6875 6.5 -3 5 C-2.67 4.01 -2.34 3.02 -2 2 C-1.34 2 -0.68 2 0 2 C0 1.34 0 0.68 0 0 Z " fill="#1DC6F0" transform="translate(277,193)"/>
<path d="M0 0 C4.12137612 4.12137612 4.24508225 10.70341101 4.27807617 16.29296875 C4.26881104 17.00066406 4.2595459 17.70835937 4.25 18.4375 C4.24395752 19.17742187 4.23791504 19.91734375 4.23168945 20.6796875 C4.13473134 26.02942481 3.7313334 30.89712261 2 36 C0.515 36.495 0.515 36.495 -1 37 C-1.28875 37.763125 -1.5775 38.52625 -1.875 39.3125 C-3.2648116 42.63260549 -5.10507099 43.94307675 -8 46 C-8.66 45.67 -9.32 45.34 -10 45 C-9.45730469 44.3709375 -8.91460937 43.741875 -8.35546875 43.09375 C-0.04748842 33.15411227 2.79169838 23.943348 2 11 C1.46257817 7.30347243 0.7778309 3.65302726 0 0 Z " fill="#0F6B96" transform="translate(267,198)"/>
<path d="M0 0 C0.763125 0.20625 1.52625 0.4125 2.3125 0.625 C1.9825 1.615 1.6525 2.605 1.3125 3.625 C2.3025 3.955 3.2925 4.285 4.3125 4.625 C2.015279 6.36771938 -0.28616729 8.02411152 -2.6875 9.625 C-3.6775 11.11 -3.6775 11.11 -4.6875 12.625 C-5.0175 11.635 -5.3475 10.645 -5.6875 9.625 C-7.70258358 8.89176204 -7.70258358 8.89176204 -9.6875 8.625 C-4.703125 -0.65625 -4.703125 -0.65625 0 0 Z " fill="#4CF1FB" transform="translate(203.6875,170.375)"/>
<path d="M0 0 C2.97 0.33 5.94 0.66 9 1 C9 1.66 9 2.32 9 3 C14.06082899 4.01541513 18.92475052 4.18328528 24.0625 4.1875 C25.24682617 4.20586914 25.24682617 4.20586914 26.45507812 4.22460938 C30.83215786 4.23561628 33.96298372 3.84487303 38 2 C40.3320802 1.92353835 42.66845878 1.90856701 45 2 C36.69981475 7.53345684 25.49046468 8.19861597 15.890625 6.42578125 C10.33029315 5.11868832 5.1531304 3.4594486 0 1 C0 0.67 0 0.34 0 0 Z " fill="#063B68" transform="translate(209,263)"/>
<path d="M0 0 C0.66 0 1.32 0 2 0 C2 0.66 2 1.32 2 2 C2.99 2.33 3.98 2.66 5 3 C5.2475 3.763125 5.495 4.52625 5.75 5.3125 C7.58593958 9.2597701 10.15582557 10.07791278 14 12 C14 12.99 14 13.98 14 15 C14.639375 15.12375 15.27875 15.2475 15.9375 15.375 C16.618125 15.58125 17.29875 15.7875 18 16 C18.33 16.66 18.66 17.32 19 18 C19.99 18.33 20.98 18.66 22 19 C22 19.66 22 20.32 22 21 C22.66 21 23.32 21 24 21 C24 21.66 24 22.32 24 23 C13.97688643 20.22145908 6.5797764 11.49764113 1 3 C0.67 2.01 0.34 1.02 0 0 Z " fill="#147CB7" transform="translate(185,240)"/>
<path d="M0 0 C0.66 0.33 1.32 0.66 2 1 C2.73075648 3.3140622 3.40138258 5.64828869 4 8 C3.05125 8.45375 2.1025 8.9075 1.125 9.375 C-2.00313679 10.80238254 -2.00313679 10.80238254 -4 13 C-4.33 12.01 -4.66 11.02 -5 10 C-5.99 12.97 -6.98 15.94 -8 19 C-8.66 19 -9.32 19 -10 19 C-10.33 20.32 -10.66 21.64 -11 23 C-12 20 -12 20 -10.92578125 17.29296875 C-4.95454545 5.7987013 -4.95454545 5.7987013 -2 2 C-1.34 2 -0.68 2 0 2 C0 1.34 0 0.68 0 0 Z " fill="#26A5BA" transform="translate(193,177)"/>
<path d="M0 0 C0.969375 0.86625 1.93875 1.7325 2.9375 2.625 C11.76439368 10.15014976 19.11966118 13.99750413 30.9375 14.625 C31.62134766 14.66367188 32.30519531 14.70234375 33.00976562 14.7421875 C34.67279513 14.83522412 36.33635847 14.91863787 38 15 C38 15.33 38 15.66 38 16 C18.58841063 16.66511791 18.58841063 16.66511791 10 13 C8.63715742 11.69684396 7.30015342 10.36570738 6 9 C5.01 8.67 4.02 8.34 3 8 C1.76132839 5.38502661 0.91496017 2.74488051 0 0 Z " fill="#0A5986" transform="translate(202,236)"/>
<path d="M0 0 C2.64590014 -0.02684679 5.29153096 -0.04676357 7.9375 -0.0625 C8.69224609 -0.07087891 9.44699219 -0.07925781 10.22460938 -0.08789062 C12.14994313 -0.09652441 14.07535581 -0.05224333 16 0 C16.33 0.33 16.66 0.66 17 1 C18.51165654 1.39148761 20.03469632 1.73972457 21.5625 2.0625 C22.38878906 2.23910156 23.21507812 2.41570312 24.06640625 2.59765625 C24.70449219 2.73042969 25.34257812 2.86320313 26 3 C23 5 23 5 20.8125 4.625 C20.214375 4.41875 19.61625 4.2125 19 4 C19 4.66 19 5.32 19 6 C17.68 6 16.36 6 15 6 C14.67 4.68 14.34 3.36 14 2 C12.1128125 1.938125 12.1128125 1.938125 10.1875 1.875 C9.47980469 1.85179687 8.77210938 1.82859375 8.04296875 1.8046875 C5.68640281 1.86745538 5.68640281 1.86745538 3 4 C2.01 4 1.02 4 0 4 C0 2.68 0 1.36 0 0 Z " fill="#62F7FA" transform="translate(225,162)"/>
<path d="M0 0 C1.4606285 2.64738916 2 3.89448334 2 7 C1.34 7 0.68 7 0 7 C-0.433125 8.423125 -0.433125 8.423125 -0.875 9.875 C-2 13 -2 13 -4 15 C-4.71927295 17.31765729 -5.3909893 19.65095874 -6 22 C-6.33 22 -6.66 22 -7 22 C-7.28571429 13.42857143 -7.28571429 13.42857143 -5 10 C-4.34 10 -3.68 10 -3 10 C-2.814375 8.3603125 -2.814375 8.3603125 -2.625 6.6875 C-2 3 -2 3 0 0 Z " fill="#2FD2F3" transform="translate(188,186)"/>
<path d="M0 0 C1.134375 0.020625 2.26875 0.04125 3.4375 0.0625 C3.4375 0.7225 3.4375 1.3825 3.4375 2.0625 C6.0775 1.7325 8.7175 1.4025 11.4375 1.0625 C8.48810648 2.57816056 5.50393299 3.92540106 2.4375 5.1875 C1.591875 5.54070312 0.74625 5.89390625 -0.125 6.2578125 C-2.5625 7.0625 -2.5625 7.0625 -6.5625 7.0625 C-4.33277027 0.07601351 -4.33277027 0.07601351 0 0 Z " fill="#37ACBE" transform="translate(216.5625,175.9375)"/>
<path d="M0 0 C0.99 0.33 1.98 0.66 3 1 C2.814375 1.78375 2.62875 2.5675 2.4375 3.375 C1.74037734 5.97089775 1.74037734 5.97089775 3 8 C1.68 8.33 0.36 8.66 -1 9 C-1 9.66 -1 10.32 -1 11 C-2.32 10.67 -3.64 10.34 -5 10 C-6.125 6.25 -6.125 6.25 -5 4 C-4.34 3.855625 -3.68 3.71125 -3 3.5625 C-2.01 3.2840625 -2.01 3.2840625 -1 3 C-0.67 2.01 -0.34 1.02 0 0 Z " fill="#35DDFA" transform="translate(268,179)"/>
<path d="M0 0 C0.66 0.33 1.32 0.66 2 1 C2.25 8.625 2.25 8.625 0 12 C-0.33 10.35 -0.66 8.7 -1 7 C-2.98 7.33 -4.96 7.66 -7 8 C-7 6.68 -7 5.36 -7 4 C-6.030625 3.71125 -5.06125 3.4225 -4.0625 3.125 C-0.89335797 2.35785318 -0.89335797 2.35785318 0 0 Z " fill="#17D1F9" transform="translate(195,192)"/>
<path d="M0 0 C1.8125 0.1875 1.8125 0.1875 4 1 C10.65759922 9.19396827 9.21856698 21.10377283 9 31 C8.67 31 8.34 31 8 31 C7.92652344 29.54980469 7.92652344 29.54980469 7.8515625 28.0703125 C7.41970801 20.55008772 6.78046944 13.34659721 5 6 C4.01 5.67 3.02 5.34 2 5 C0.8125 2.4375 0.8125 2.4375 0 0 Z " fill="#28A5CB" transform="translate(263,192)"/>
<path d="M0 0 C0.66 0.99 1.32 1.98 2 3 C1.01 4.485 1.01 4.485 0 6 C-0.66 5.34 -1.32 4.68 -2 4 C-2.5775 4.350625 -3.155 4.70125 -3.75 5.0625 C-6.35801776 6.14917407 -7.39417629 5.93065133 -10 5 C-9 2 -9 2 -7.25 0.8125 C-4.6198865 -0.13726321 -2.77429757 -0.36503915 0 0 Z " fill="#41E9FB" transform="translate(211,176)"/>
<path d="M0 0 C2.9237569 1.37357707 5.47133557 2.94785266 8.0625 4.875 C8.73410156 5.36742187 9.40570313 5.85984375 10.09765625 6.3671875 C12.08531958 8.07323118 13.5092935 9.85449719 15 12 C14.01 12.495 14.01 12.495 13 13 C13 12.34 13 11.68 13 11 C11.68 11 10.36 11 9 11 C7.95374591 9.70264493 6.95298777 8.36733028 6 7 C5.01 6.67 4.02 6.34 3 6 C2.67 5.01 2.34 4.02 2 3 C1.01 2.34 0.02 1.68 -1 1 C-0.67 0.67 -0.34 0.34 0 0 Z " fill="#47ABB7" transform="translate(259,167)"/>
<path d="M0 0 C7.1191234 -0.8089913 12.62116486 2.06720223 19 5 C18.01 5.66 17.02 6.32 16 7 C15.01 6.67 14.02 6.34 13 6 C12.01 6.33 11.02 6.66 10 7 C9.67 6.01 9.34 5.02 9 4 C7.88625 3.896875 6.7725 3.79375 5.625 3.6875 C3.830625 3.3471875 3.830625 3.3471875 2 3 C1.34 2.01 0.68 1.02 0 0 Z " fill="#4DAFB7" transform="translate(240,161)"/>
<path d="M0 0 C0.66 0 1.32 0 2 0 C0.125 3.875 0.125 3.875 -1 5 C-1.15825258 6.99782126 -1.25119171 9.00088834 -1.31640625 11.00390625 C-1.35830078 12.21884766 -1.40019531 13.43378906 -1.44335938 14.68554688 C-1.48267578 15.96494141 -1.52199219 17.24433594 -1.5625 18.5625 C-1.60568359 19.84576172 -1.64886719 21.12902344 -1.69335938 22.45117188 C-1.799848 25.63399853 -1.90185962 28.81690674 -2 32 C-5.19159157 27.21261264 -4.0608042 22.16663144 -3.8125 16.5625 C-3.78091797 15.41716797 -3.74933594 14.27183594 -3.71679688 13.09179688 C-3.67232422 11.99029297 -3.62785156 10.88878906 -3.58203125 9.75390625 C-3.54311768 8.74658447 -3.5042041 7.7392627 -3.46411133 6.70141602 C-2.94215533 3.66330813 -2.13237362 2.20184699 0 0 Z " fill="#BCC1C6" transform="translate(246,78)"/>
<path d="M0 0 C2.82595385 2.82595385 3.80453375 4.35080203 5.25 7.9375 C5.78367187 9.21947266 5.78367187 9.21947266 6.328125 10.52734375 C7.04658772 13.17145366 6.91982605 14.45868571 6 17 C3.8480563 13.77208445 3.79913557 12.71599191 4 9 C2.68 9 1.36 9 0 9 C0 6.03 0 3.06 0 0 Z " fill="#2DA3BE" transform="translate(278,184)"/>
<path d="M0 0 C0.515625 0.391875 1.03125 0.78375 1.5625 1.1875 C-3.41254047 4.43650602 -6.31975104 5.68690808 -12.4375 5.1875 C-9.45081839 1.49806977 -4.71352993 -1.57117664 0 0 Z " fill="#1499E7" transform="translate(261.4375,259.8125)"/>
<path d="M0 0 C0.66 0.33 1.32 0.66 2 1 C1.71125 1.53625 1.4225 2.0725 1.125 2.625 C-0.16711808 5.35280484 -1.08558592 8.12612718 -2 11 C-2.28875 10.38125 -2.5775 9.7625 -2.875 9.125 C-3.93720042 6.86674235 -3.93720042 6.86674235 -6 5 C-5.625 2.875 -5.625 2.875 -5 1 C-4.34 1.66 -3.68 2.32 -3 3 C-2.01 2.67 -1.02 2.34 0 2 C0 1.34 0 0.68 0 0 Z " fill="#1ACEF4" transform="translate(273,191)"/>
<path d="M0 0 C-1.29089743 1.4590143 -2.58274439 2.91718851 -3.875 4.375 C-4.59429687 5.18710938 -5.31359375 5.99921875 -6.0546875 6.8359375 C-7.33295938 8.25795079 -8.64794586 9.64794586 -10 11 C-9.67 8.69 -9.34 6.38 -9 4 C-8.01 4 -7.02 4 -6 4 C-6 2.68 -6 1.36 -6 0 C-3 -1 -3 -1 0 0 Z " fill="#2D96AA" transform="translate(211,185)"/>
<path d="M0 0 C5.63000273 -0.34469404 9.14886197 0.2833627 14 3 C14.9375 5.1875 14.9375 5.1875 15 7 C7.5 4 7.5 4 0 1 C0 0.67 0 0.34 0 0 Z " fill="#297C91" transform="translate(242,178)"/>
<path d="M0 0 C-5.68956089 3.7930406 -11.22049547 4.24388504 -17.9375 4.125 C-18.62134766 4.11597656 -19.30519531 4.10695313 -20.00976562 4.09765625 C-21.67333287 4.07438958 -23.33671631 4.03853167 -25 4 C-25 3.67 -25 3.34 -25 3 C-24.11957031 2.95101563 -23.23914063 2.90203125 -22.33203125 2.8515625 C-21.17058594 2.77679688 -20.00914062 2.70203125 -18.8125 2.625 C-17.08966797 2.52058594 -17.08966797 2.52058594 -15.33203125 2.4140625 C-9.79112962 1.72550966 -5.78339157 -0.22679967 0 0 Z " fill="#09497B" transform="translate(254,265)"/>
<path d="M0 0 C-0.33 0.66 -0.66 1.32 -1 2 C-3.16467461 2.62669199 -5.35864524 3.15427374 -7.5625 3.625 C-8.76003906 3.88539063 -9.95757812 4.14578125 -11.19140625 4.4140625 C-12.11824219 4.60742188 -13.04507813 4.80078125 -14 5 C-13.67 4.01 -13.34 3.02 -13 2 C-10.8203125 1.015625 -10.8203125 1.015625 -8.125 0.25 C-7.24070313 -0.01296875 -6.35640625 -0.2759375 -5.4453125 -0.546875 C-3 -1 -3 -1 0 0 Z " fill="#6DF3F6" transform="translate(224,163)"/>
<path d="M0 0 C0 0.33 0 0.66 0 1 C-2.64 1.33 -5.28 1.66 -8 2 C-8 2.66 -8 3.32 -8 4 C-8.99 4.66 -9.98 5.32 -11 6 C-11.73343428 9.06556598 -11.73343428 9.06556598 -12 12 C-12.33 12 -12.66 12 -13 12 C-13.41668469 7.74981621 -13.44022082 5.64657432 -11 2.0625 C-6.96968211 -0.70834355 -4.80160858 -0.40691598 0 0 Z " fill="#A3A9AC" transform="translate(322,264)"/>
<path d="M0 0 C0.99 0.66 1.98 1.32 3 2 C1.50260417 3.23697917 0.00520833 4.47395833 -1.4921875 5.7109375 C-2.71051161 6.75250992 -3.86660097 7.86660097 -5 9 C-6.64991582 9.70710678 -8.31562256 10.37943989 -10 11 C-6.79239749 7.19364503 -3.59253891 3.45436433 0 0 Z " fill="#ACB1B7" transform="translate(309,139)"/>
<path d="M0 0 C2 1.0625 2 1.0625 4 3 C4.25 6.6875 4.25 6.6875 4 10 C3.01 10.33 2.02 10.66 1 11 C-0.28317892 7.15046324 -0.06643637 4.05261865 0 0 Z " fill="#30B7D3" transform="translate(274,179)"/>
<path d="M0 0 C-2.91824244 1.66674321 -4.97594379 2.2432008 -8.328125 2.1953125 C-9.12734375 2.18886719 -9.9265625 2.18242187 -10.75 2.17578125 C-11.575 2.15902344 -12.4 2.14226562 -13.25 2.125 C-14.09046875 2.11597656 -14.9309375 2.10695313 -15.796875 2.09765625 C-17.86470604 2.07415817 -19.93238995 2.03828908 -22 2 C-22 1.67 -22 1.34 -22 1 C-21.01257813 0.93941406 -20.02515625 0.87882812 -19.0078125 0.81640625 C-17.72648438 0.73261719 -16.44515625 0.64882813 -15.125 0.5625 C-13.84882813 0.48128906 -12.57265625 0.40007812 -11.2578125 0.31640625 C-2.65384615 -0.51923077 -2.65384615 -0.51923077 0 0 Z " fill="#1891E4" transform="translate(246,266)"/>
<path d="M0 0 C0.66 0.33 1.32 0.66 2 1 C1.0409375 2.1446875 1.0409375 2.1446875 0.0625 3.3125 C-2.14232781 5.88246713 -2.14232781 5.88246713 -3 9 C-3.66 9 -4.32 9 -5 9 C-5.33 8.01 -5.66 7.02 -6 6 C-4 4 -2 2 0 0 Z " fill="#45B0B6" transform="translate(201,170)"/>
<path d="M0 0 C0.66 0.33 1.32 0.66 2 1 C0.92807816 2.3218362 -0.15802695 3.63217927 -1.25 4.9375 C-1.85328125 5.66839844 -2.4565625 6.39929688 -3.078125 7.15234375 C-5.10741134 9.10326334 -6.254407 9.61731779 -9 10 C-8.06409496 8.8944811 -7.12620142 7.79064547 -6.1875 6.6875 C-5.66542969 6.07261719 -5.14335938 5.45773437 -4.60546875 4.82421875 C-3.12827531 3.14575321 -1.59960869 1.56117966 0 0 Z " fill="#959DA3" transform="translate(124,334)"/>
<path d="M0 0 C-1.55603771 3.81936528 -3.95604931 6.26044438 -7 9 C-7.66 9 -8.32 9 -9 9 C-7.45665977 5.21180126 -4.44676575 0 0 0 Z " fill="#91999C" transform="translate(331,119)"/>
<path d="M0 0 C0.66 0 1.32 0 2 0 C2 0.66 2 1.32 2 2 C2.99 2.33 3.98 2.66 5 3 C6.75 5.9375 6.75 5.9375 8 9 C7.67 9.66 7.34 10.32 7 11 C6.0158875 9.73299277 5.03788503 8.4612381 4.0625 7.1875 C3.51722656 6.47980469 2.97195312 5.77210938 2.41015625 5.04296875 C1 3 1 3 0 0 Z " fill="#0D6189" transform="translate(185,240)"/>
<path d="M0 0 C1.17539996 0.92652701 2.34010577 1.86663387 3.5 2.8125 C4.1496875 3.33457031 4.799375 3.85664063 5.46875 4.39453125 C7 6 7 6 7 9 C5.125 8.8125 5.125 8.8125 3 8 C1.8125 5.625 1.8125 5.625 1 3 C0.67 2.01 0.34 1.02 0 0 Z " fill="#106695" transform="translate(202,236)"/>
<path d="M0 0 C0.99 0.33 1.98 0.66 3 1 C2.34 1.66 1.68 2.32 1 3 C0.28072705 5.31765729 -0.3909893 7.65095874 -1 10 C-1.33 10 -1.66 10 -2 10 C-2.1953125 3.9453125 -2.1953125 3.9453125 -2 2 C-1.34 1.34 -0.68 0.68 0 0 Z " fill="#20C8EE" transform="translate(183,198)"/>
<path d="M0 0 C0.99 0.33 1.98 0.66 3 1 C-1.625 6.875 -1.625 6.875 -5 8 C-5 6.68 -5 5.36 -5 4 C-4.0409375 3.8453125 -4.0409375 3.8453125 -3.0625 3.6875 C-2.381875 3.460625 -1.70125 3.23375 -1 3 C-0.67 2.01 -0.34 1.02 0 0 Z " fill="#136A9D" transform="translate(273,248)"/>
<path d="M0 0 C0.33 0 0.66 0 1 0 C1 1.65 1 3.3 1 5 C0.67 5 0.34 5 0 5 C0 3.35 0 1.7 0 0 Z M-1 5 C-0.34 6.32 0.32 7.64 1 9 C0.01 10.32 -0.98 11.64 -2 13 C-2.04241723 10.66705225 -2.04092937 8.33297433 -2 6 C-1.67 5.67 -1.34 5.34 -1 5 Z " fill="#0BCBFB" transform="translate(183,202)"/>
<path d="M0 0 C4.26086957 6.39130435 4.26086957 6.39130435 3.625 10.3125 C3.41875 10.869375 3.2125 11.42625 3 12 C0.97649676 8.96474514 0.67875982 7.80573798 0.375 4.3125 C0.30023438 3.50425781 0.22546875 2.69601563 0.1484375 1.86328125 C0.09945313 1.24839844 0.05046875 0.63351563 0 0 Z " fill="#1A728D" transform="translate(281,189)"/>
<path d="M0 0 C1.32 0.66 2.64 1.32 4 2 C-1.2734375 5.22265625 -1.2734375 5.22265625 -3 6 C-3.66 5.67 -4.32 5.34 -5 5 C-4.67 4.34 -4.34 3.68 -4 3 C-2.68 3 -1.36 3 0 3 C0 2.01 0 1.02 0 0 Z " fill="#0B5F96" transform="translate(259,259)"/>
<path d="M0 0 C0.66 0.33 1.32 0.66 2 1 C0.8125 3 0.8125 3 -1 5 C-3.6875 5.25 -3.6875 5.25 -6 5 C-2.25 1.125 -2.25 1.125 0 0 Z " fill="#409799" transform="translate(209,165)"/>
<path d="M0 0 C0.66 0.99 1.32 1.98 2 3 C1.25 5.625 1.25 5.625 0 8 C-0.99 8.495 -0.99 8.495 -2 9 C-1.125 1.125 -1.125 1.125 0 0 Z " fill="#0B7AB1" transform="translate(278,239)"/>
<path d="M0 0 C0.66 0 1.32 0 2 0 C2.99 2.97 3.98 5.94 5 9 C2.5 6.6875 2.5 6.6875 0 4 C0 2.66666667 0 1.33333333 0 0 Z " fill="#238496" transform="translate(258,183)"/>
<path d="M0 0 C0.66 0.33 1.32 0.66 2 1 C0.95125002 3.62187494 0.35068687 4.79371361 -2.125 6.25 C-2.74375 6.4975 -3.3625 6.745 -4 7 C-3.34 5.35 -2.68 3.7 -2 2 C-1.34 2 -0.68 2 0 2 C0 1.34 0 0.68 0 0 Z " fill="#2E7F9C" transform="translate(193,177)"/>
</svg>
