<svg version="1.1" id="Layer_1" xmlns="http://www.w3.org/2000/svg" xmlns:xlink="http://www.w3.org/1999/xlink" x="0px" y="0px"
	 width="100%" viewBox="0 0 512 512" enable-background="new 0 0 512 512" xml:space="preserve">
<path fill="#000000" opacity="1.000000" stroke="none" 
	d="
M284.000000,513.000000 
	C189.356308,513.000000 95.212616,513.000000 1.034460,513.000000 
	C1.034460,342.397949 1.034460,171.795883 1.034460,1.096914 
	C171.560379,1.096914 342.120819,1.096914 512.840637,1.096914 
	C512.840637,171.666550 512.840637,342.333252 512.840637,513.000000 
	C436.795868,513.000000 360.647919,513.000000 284.000000,513.000000 
M335.500000,314.016357 
	C367.659332,314.016327 399.819000,313.943512 431.977814,314.072205 
	C439.180725,314.101044 447.326477,308.027649 447.180695,298.967804 
	C446.730438,270.981415 446.733185,242.978638 447.179413,214.992096 
	C447.323517,205.953461 439.131134,199.922348 431.937958,199.927261 
	C315.297821,200.007019 198.657562,200.006561 82.017410,199.928238 
	C74.833023,199.923416 66.664955,206.065201 66.815598,215.027603 
	C67.277573,242.513596 66.983521,270.012299 66.983742,297.506073 
	C66.983826,308.613007 72.402878,314.015472 83.556923,314.015656 
	C167.204620,314.016937 250.852310,314.016357 335.500000,314.016357 
z"/>
<path fill="#A1A1A1" opacity="1.000000" stroke="none" 
	d="
M335.000000,314.016357 
	C250.852310,314.016357 167.204620,314.016937 83.556923,314.015656 
	C72.402878,314.015472 66.983826,308.613007 66.983742,297.506073 
	C66.983521,270.012299 67.277573,242.513596 66.815598,215.027603 
	C66.664955,206.065201 74.833023,199.923416 82.017410,199.928238 
	C198.657562,200.006561 315.297821,200.007019 431.937958,199.927261 
	C439.131134,199.922348 447.323517,205.953461 447.179413,214.992096 
	C446.733185,242.978638 446.730438,270.981415 447.180695,298.967804 
	C447.326477,308.027649 439.180725,314.101044 431.977814,314.072205 
	C399.819000,313.943512 367.659332,314.016327 335.000000,314.016357 
M444.426147,286.497131 
	C444.426086,263.672150 444.441498,240.847168 444.419220,218.022202 
	C444.408752,207.305328 440.283844,203.176941 429.693970,203.176849 
	C314.569641,203.175690 199.445297,203.175720 84.320961,203.176834 
	C73.725609,203.176941 69.589890,207.305283 69.581017,218.007263 
	C69.559471,243.997696 69.559715,269.988159 69.580894,295.978607 
	C69.589622,306.694855 73.716591,310.823029 84.306831,310.823151 
	C199.431168,310.824280 314.555511,310.823822 429.679840,310.823730 
	C430.679474,310.823730 431.680786,310.860016 432.678467,310.815674 
	C439.158691,310.527679 443.640503,306.487274 444.205658,299.974426 
	C444.564484,295.839386 444.371826,291.656494 444.426147,286.497131 
z"/>
<path fill="#020202" opacity="1.000000" stroke="none" 
	d="
M444.426331,286.996094 
	C444.371826,291.656494 444.564484,295.839386 444.205658,299.974426 
	C443.640503,306.487274 439.158691,310.527679 432.678467,310.815674 
	C431.680786,310.860016 430.679474,310.823730 429.679840,310.823730 
	C314.555511,310.823822 199.431168,310.824280 84.306831,310.823151 
	C73.716591,310.823029 69.589622,306.694855 69.580894,295.978607 
	C69.559715,269.988159 69.559471,243.997696 69.581017,218.007263 
	C69.589890,207.305283 73.725609,203.176941 84.320961,203.176834 
	C199.445297,203.175720 314.569641,203.175690 429.693970,203.176849 
	C440.283844,203.176941 444.408752,207.305328 444.419220,218.022202 
	C444.441498,240.847168 444.426086,263.672150 444.426331,286.996094 
M142.816345,244.585129 
	C130.976166,237.837234 119.233818,230.906830 107.226540,224.470673 
	C104.249680,222.875015 100.414307,222.881012 96.209328,222.322250 
	C95.931374,227.825806 95.653419,233.329361 95.212006,239.778625 
	C95.193230,255.184311 95.116013,270.590424 95.228409,285.995148 
	C95.242729,287.957794 96.247169,289.913177 97.266510,292.498260 
	C99.003075,292.383514 101.055489,292.833679 102.427345,292.066650 
	C116.083847,284.431091 129.628021,276.594635 143.850739,268.707977 
	C148.306808,266.196838 152.856674,263.836060 157.192200,261.131714 
	C161.409103,258.501312 161.401978,255.357407 157.156723,252.762451 
	C152.664124,250.016266 147.953339,247.627014 142.816345,244.585129 
M290.175720,285.157318 
	C290.310242,285.267944 290.444794,285.378601 290.718750,286.259735 
	C288.453888,291.874695 284.320160,293.624908 280.675293,289.958649 
	C278.156158,287.424744 276.395111,287.752045 274.090698,289.594879 
	C276.714355,294.888733 280.779236,297.395477 285.840332,296.764435 
	C290.993622,296.121918 295.122833,293.437531 295.504425,288.247101 
	C296.129974,279.737732 295.673737,271.148865 295.673737,263.089844 
	C291.990173,262.648376 288.755096,262.096039 285.500793,261.936584 
	C283.740356,261.850342 281.825623,262.126831 280.190338,262.771729 
	C274.244202,265.116638 271.375488,271.909576 273.535461,278.049072 
	C275.872314,284.691345 281.844574,287.168793 290.175720,285.157318 
M196.526657,279.640900 
	C188.753983,275.128204 186.269882,268.393188 189.775589,261.337158 
	C193.499222,253.842529 199.924728,252.523880 211.542145,257.195068 
	C212.007263,256.577698 212.619263,255.784546 213.208572,254.974915 
	C213.494659,254.581818 213.738266,254.157822 213.993317,253.759995 
	C207.283249,247.328690 197.229813,246.762756 189.950256,252.357147 
	C182.363586,258.187531 180.224533,268.362518 184.889175,276.431519 
	C189.623230,284.620544 199.939362,288.250488 208.681137,284.803192 
	C216.242599,281.821350 220.219360,273.993256 218.199905,265.438782 
	C213.840912,265.438782 209.371857,265.418915 204.903229,265.452545 
	C203.764282,265.461090 202.626602,265.639374 201.113037,265.772766 
	C201.216766,267.512665 201.309067,269.060822 201.416901,270.869385 
	C203.665359,270.869385 205.478104,270.869385 207.290848,270.869385 
	C209.186798,270.869385 211.082764,270.869385 213.092834,270.869385 
	C211.290695,278.905670 206.257629,281.599060 196.526657,279.640900 
M346.173706,274.773010 
	C347.116058,273.850311 347.927643,272.393707 349.029877,272.123779 
	C350.922516,271.660248 353.020355,272.122498 354.989960,271.868927 
	C360.920563,271.105408 364.863953,266.856567 365.003876,261.296204 
	C365.148438,255.551010 361.476471,250.687027 355.802948,250.131683 
	C350.927155,249.654419 345.967682,250.032761 341.032715,250.032761 
	C341.032715,261.882996 341.032715,273.313812 341.032715,284.898315 
	C342.785797,284.898315 344.329895,284.898315 346.173248,284.898315 
	C346.173248,281.662537 346.173248,278.691284 346.173706,274.773010 
M396.869049,282.206787 
	C396.862946,278.391876 397.025543,274.567352 396.808044,270.764526 
	C396.535950,266.007904 393.454620,262.796204 388.803101,261.968872 
	C383.018219,260.939972 379.086761,262.711090 376.380432,268.695221 
	C379.308838,268.139679 381.386780,267.847839 383.409912,267.338379 
	C386.716217,266.505829 389.575928,266.572632 391.059509,269.984863 
	C387.930084,270.235229 384.801910,270.107635 381.872650,270.809845 
	C377.656128,271.820618 375.369995,274.759644 376.020386,279.268738 
	C376.635956,283.536224 379.699341,285.645752 383.622375,285.827728 
	C387.670227,286.015503 391.762451,285.419434 395.818298,285.001587 
	C396.227356,284.959442 396.519470,283.781799 396.869049,282.206787 
M314.637085,278.962280 
	C315.530243,278.000000 316.246246,276.659271 317.348358,276.143463 
	C321.328705,274.280548 325.438995,272.695190 329.469086,271.018005 
	C326.627228,263.816864 322.725586,261.149597 316.890533,261.940094 
	C311.811707,262.628143 308.037964,266.524780 307.224426,271.920837 
	C306.366821,277.609558 309.495026,283.127747 314.725983,285.153534 
	C320.221588,287.281799 325.210358,285.680573 329.097290,280.434784 
	C327.895111,279.582947 326.695496,278.732941 325.340363,277.772736 
	C322.305603,280.635498 319.078369,282.431458 314.637085,278.962280 
M241.159500,282.682648 
	C241.855148,281.760620 242.676132,280.907288 243.225372,279.905029 
	C246.009979,274.823792 245.028442,268.600098 240.935684,264.918701 
	C236.837540,261.232483 230.372955,260.750336 225.740768,263.785431 
	C221.292908,266.699738 219.314987,272.472473 221.042816,277.809601 
	C223.824127,286.400757 234.676086,288.548431 241.159500,282.682648 
M407.258850,273.296051 
	C406.392273,271.136353 405.340698,269.029938 404.699982,266.805145 
	C403.577179,262.906464 401.358002,261.386566 397.110443,262.946869 
	C397.776428,264.598419 398.317261,266.308685 399.125092,267.881836 
	C403.742798,276.873871 408.341766,285.839905 401.492676,296.275024 
	C403.525940,295.905609 406.517944,295.630951 407.173126,294.248627 
	C412.049438,283.961121 416.462250,273.453918 421.034515,262.983551 
	C416.759583,261.528992 414.387665,262.643005 413.195435,266.702606 
	C412.214691,270.042175 410.692383,273.222687 409.029602,277.438385 
	C408.245789,275.494965 407.944855,274.748932 407.258850,273.296051 
M246.873932,271.888763 
	C246.356064,276.873657 247.546021,281.149139 252.000549,284.019806 
	C258.131714,287.970947 266.322662,285.888885 269.624756,279.564240 
	C272.898376,273.294128 270.214844,265.587250 263.781403,262.782471 
	C256.774109,259.727478 249.835953,263.137909 246.873932,271.888763 
M305.027557,266.501404 
	C305.027557,261.057617 305.027557,255.613800 305.027557,250.175079 
	C302.950043,250.175079 301.241455,250.175079 299.666931,250.175079 
	C299.666931,261.966858 299.666931,273.377777 299.666931,284.994476 
	C301.485596,284.994476 303.076538,284.994476 305.027557,284.994476 
	C305.027557,279.052490 305.027557,273.276245 305.027557,266.501404 
M373.173187,279.443665 
	C373.173187,269.697052 373.173187,259.950439 373.173187,250.120316 
	C371.174744,250.120316 369.636047,250.120316 368.138672,250.120316 
	C368.138672,261.938263 368.138672,273.462433 368.138672,284.970795 
	C369.886322,284.970795 371.313721,284.970795 373.173187,284.970795 
	C373.173187,283.327881 373.173187,281.878937 373.173187,279.443665 
M284.819885,228.768997 
	C287.327301,231.635544 287.794739,236.357361 292.283875,237.779358 
	C292.283875,231.500305 292.283875,225.804138 292.283875,220.107986 
	C291.793854,220.091080 291.303802,220.074188 290.813782,220.057297 
	C290.526031,223.675766 290.238281,227.294250 289.941101,231.031570 
	C285.638916,227.897110 285.860107,221.289917 279.892517,219.931076 
	C278.522339,229.016785 279.096985,235.607422 281.994110,238.125885 
	C281.994110,233.649979 281.994110,229.723587 281.994110,224.547729 
	C283.351868,226.577026 283.885742,227.374908 284.819885,228.768997 
M197.931183,223.487030 
	C197.820953,222.891541 197.924438,222.049988 197.566788,221.739349 
	C194.611115,219.172180 189.720963,219.275360 186.526093,221.867706 
	C183.229004,224.543015 182.254562,229.320557 184.217300,233.187714 
	C186.066391,236.830963 190.916656,238.940552 194.890060,237.571228 
	C199.134109,236.108582 201.186310,233.144501 200.571930,228.648132 
	C197.487396,228.648132 194.735596,228.648132 191.983795,228.648132 
	C191.935333,229.120834 191.886871,229.593552 191.838409,230.066254 
	C193.831512,230.403824 195.824600,230.741409 197.817688,231.078979 
	C197.966431,231.607407 198.115189,232.135818 198.263931,232.664230 
	C196.050018,233.551941 193.765305,235.262741 191.643478,235.080200 
	C189.774704,234.919418 187.128189,232.949554 186.574280,231.218796 
	C185.942902,229.245911 186.569809,226.139877 187.855942,224.437576 
	C190.439209,221.018448 194.001373,222.482468 197.931183,223.487030 
M267.573120,219.936905 
	C265.320404,221.125214 262.486847,221.813309 260.939911,223.609482 
	C258.022858,226.996536 258.307831,231.088516 261.083984,234.591583 
	C263.739563,237.942535 267.343597,238.833282 271.366058,237.224258 
	C275.452271,235.589722 277.254913,232.250259 276.826416,228.105667 
	C276.326904,223.274033 273.528503,220.259735 267.573120,219.936905 
M208.412369,220.061127 
	C206.830902,220.149826 205.249435,220.238525 203.761261,220.321991 
	C203.761261,226.345764 203.761261,231.881073 203.761261,237.990417 
	C207.411667,237.583801 210.556396,237.233505 213.701126,236.883209 
	C213.625626,236.312927 213.550140,235.742645 213.474640,235.172379 
	C211.066238,235.014587 208.657837,234.856796 206.012131,234.683456 
	C206.142822,232.975479 206.249634,231.579697 206.352310,230.237915 
	C208.825592,230.070023 210.910416,229.928513 212.995239,229.786987 
	C212.984711,229.238785 212.974167,228.690582 212.963638,228.142380 
	C210.790451,227.917633 208.617249,227.692902 206.315781,227.454880 
	C206.315781,226.036743 206.315781,224.615387 206.315781,223.307358 
	C208.943710,222.942215 211.324509,222.611420 213.705322,222.280609 
	C213.691772,221.712997 213.678238,221.145386 213.664688,220.577774 
	C212.202652,220.405563 210.740631,220.233353 208.412369,220.061127 
M248.390320,220.061203 
	C245.720230,220.143082 243.050140,220.224960 240.380051,220.306854 
	C240.366486,220.930847 240.352921,221.554855 240.339355,222.178864 
	C241.895676,222.628342 243.452011,223.077835 244.824203,223.474136 
	C245.067398,228.394394 245.296112,233.021896 245.524826,237.649414 
	C246.220718,237.609055 246.916626,237.568710 247.612518,237.528366 
	C247.612518,232.747650 247.612518,227.966949 247.612518,224.535370 
	C249.895813,222.878113 251.025528,222.058136 252.155243,221.238174 
	C251.205597,220.846024 250.255951,220.453857 248.390320,220.061203 
M225.053177,222.940826 
	C225.862228,222.559372 226.671280,222.177917 227.480331,221.796448 
	C227.045227,221.235352 226.628647,220.205795 226.172089,220.187729 
	C222.719360,220.051208 219.258789,220.113144 215.800659,220.113144 
	C215.723709,220.726166 215.646759,221.339188 215.569809,221.952209 
	C217.005661,222.498917 218.441528,223.045624 220.770874,223.932526 
	C220.770874,228.297958 220.770874,232.975235 220.770874,237.652512 
	C221.493546,237.625488 222.216202,237.598465 222.938873,237.571442 
	C222.938873,234.612381 222.788162,231.642883 222.992447,228.697983 
	C223.126282,226.768448 223.773727,224.874557 225.053177,222.940826 
M238.079605,223.803635 
	C237.920364,222.538239 237.761139,221.272858 237.488373,219.105286 
	C234.239487,224.012863 234.743683,235.759460 238.079636,237.774048 
	C238.079636,233.221756 238.079636,228.978348 238.079605,223.803635 
z"/>
<path fill="#01D4FE" opacity="1.000000" stroke="none" 
	d="
M96.792908,291.871948 
	C96.247169,289.913177 95.242729,287.957794 95.228409,285.995148 
	C95.116013,270.590424 95.193230,255.184311 95.690430,239.371155 
	C98.218719,240.246170 100.554565,241.229263 102.266846,242.865082 
	C108.332550,248.659988 114.226929,254.637238 120.084175,260.644897 
	C121.286827,261.878418 122.048584,263.541870 122.885132,265.316223 
	C114.102097,274.374176 105.447502,283.123077 96.792908,291.871948 
z"/>
<path fill="#EFEFEF" opacity="1.000000" stroke="none" 
	d="
M196.918549,279.790314 
	C206.257629,281.599060 211.290695,278.905670 213.092834,270.869385 
	C211.082764,270.869385 209.186798,270.869385 207.290848,270.869385 
	C205.478104,270.869385 203.665359,270.869385 201.416901,270.869385 
	C201.309067,269.060822 201.216766,267.512665 201.113037,265.772766 
	C202.626602,265.639374 203.764282,265.461090 204.903229,265.452545 
	C209.371857,265.418915 213.840912,265.438782 218.199905,265.438782 
	C220.219360,273.993256 216.242599,281.821350 208.681137,284.803192 
	C199.939362,288.250488 189.623230,284.620544 184.889175,276.431519 
	C180.224533,268.362518 182.363586,258.187531 189.950256,252.357147 
	C197.229813,246.762756 207.283249,247.328690 213.993317,253.759995 
	C213.738266,254.157822 213.494659,254.581818 213.208572,254.974915 
	C212.619263,255.784546 212.007263,256.577698 211.542145,257.195068 
	C199.924728,252.523880 193.499222,253.842529 189.775589,261.337158 
	C186.269882,268.393188 188.753983,275.128204 196.918549,279.790314 
z"/>
<path fill="#EF314A" opacity="1.000000" stroke="none" 
	d="
M97.029709,292.185120 
	C105.447502,283.123077 114.102097,274.374176 123.195847,265.196716 
	C126.129295,262.193146 128.623581,259.618164 131.341644,257.043121 
	C131.565414,257.043091 132.012604,257.025848 132.185883,257.305542 
	C135.974075,261.328461 139.589005,265.071686 143.203918,268.814911 
	C129.628021,276.594635 116.083847,284.431091 102.427345,292.066650 
	C101.055489,292.833679 99.003075,292.383514 97.029709,292.185120 
z"/>
<path fill="#F3F3F3" opacity="1.000000" stroke="none" 
	d="
M289.798676,284.795441 
	C281.844574,287.168793 275.872314,284.691345 273.535461,278.049072 
	C271.375488,271.909576 274.244202,265.116638 280.190338,262.771729 
	C281.825623,262.126831 283.740356,261.850342 285.500793,261.936584 
	C288.755096,262.096039 291.990173,262.648376 295.673737,263.089844 
	C295.673737,271.148865 296.129974,279.737732 295.504425,288.247101 
	C295.122833,293.437531 290.993622,296.121918 285.840332,296.764435 
	C280.779236,297.395477 276.714355,294.888733 274.091003,289.590546 
	C276.395111,287.752045 278.156158,287.424744 280.675293,289.958649 
	C284.320160,293.624908 288.453888,291.874695 290.747711,285.653381 
	C290.671448,284.762207 290.566193,284.477448 290.460938,284.192657 
	C290.240173,284.393585 290.019440,284.594513 289.798676,284.795441 
M278.438965,273.573761 
	C279.404419,278.959198 282.141418,281.775391 285.890808,280.869232 
	C289.969208,279.883545 291.907654,276.663696 290.812622,272.975159 
	C290.111023,270.611816 287.597992,267.730133 285.345184,267.120728 
	C281.577942,266.101715 279.391968,269.091949 278.438965,273.573761 
z"/>
<path fill="#03ED77" opacity="1.000000" stroke="none" 
	d="
M132.012604,257.025848 
	C132.012604,257.025848 131.565414,257.043091 131.179337,256.745026 
	C119.520020,245.014908 108.246788,233.582855 96.973557,222.150787 
	C100.414307,222.881012 104.249680,222.875015 107.226540,224.470673 
	C119.233818,230.906830 130.976166,237.837234 142.922302,245.144775 
	C139.356354,249.478241 135.684479,253.252045 132.012604,257.025848 
z"/>
<path fill="#01C3F5" opacity="1.000000" stroke="none" 
	d="
M96.591438,222.236511 
	C108.246788,233.582855 119.520020,245.014908 130.955566,256.745056 
	C128.623581,259.618164 126.129295,262.193146 123.324295,264.887634 
	C122.048584,263.541870 121.286827,261.878418 120.084175,260.644897 
	C114.226929,254.637238 108.332550,248.659988 102.266846,242.865082 
	C100.554565,241.229263 98.218719,240.246170 95.772163,238.898315 
	C95.653419,233.329361 95.931374,227.825806 96.591438,222.236511 
z"/>
<path fill="#FBFBFB" opacity="1.000000" stroke="none" 
	d="
M346.173462,275.246521 
	C346.173248,278.691284 346.173248,281.662537 346.173248,284.898315 
	C344.329895,284.898315 342.785797,284.898315 341.032715,284.898315 
	C341.032715,273.313812 341.032715,261.882996 341.032715,250.032761 
	C345.967682,250.032761 350.927155,249.654419 355.802948,250.131683 
	C361.476471,250.687027 365.148438,255.551010 365.003876,261.296204 
	C364.863953,266.856567 360.920563,271.105408 354.989960,271.868927 
	C353.020355,272.122498 350.922516,271.660248 349.029877,272.123779 
	C347.927643,272.393707 347.116058,273.850311 346.173462,275.246521 
M351.317413,254.991776 
	C349.719971,254.991776 348.122559,254.991776 346.494751,254.991776 
	C346.494751,259.191254 346.494751,262.878967 346.494751,266.529663 
	C355.561768,267.336334 358.875763,266.032440 359.430267,261.603455 
	C359.920166,257.690399 357.447693,255.430756 351.317413,254.991776 
z"/>
<path fill="#F8C804" opacity="1.000000" stroke="none" 
	d="
M132.185883,257.305542 
	C135.684479,253.252045 139.356354,249.478241 143.183044,245.393143 
	C147.953339,247.627014 152.664124,250.016266 157.156723,252.762451 
	C161.401978,255.357407 161.409103,258.501312 157.192200,261.131714 
	C152.856674,263.836060 148.306808,266.196838 143.527328,268.761444 
	C139.589005,265.071686 135.974075,261.328461 132.185883,257.305542 
z"/>
<path fill="#EFEFEF" opacity="1.000000" stroke="none" 
	d="
M396.867462,282.668945 
	C396.519470,283.781799 396.227356,284.959442 395.818298,285.001587 
	C391.762451,285.419434 387.670227,286.015503 383.622375,285.827728 
	C379.699341,285.645752 376.635956,283.536224 376.020386,279.268738 
	C375.369995,274.759644 377.656128,271.820618 381.872650,270.809845 
	C384.801910,270.107635 387.930084,270.235229 391.059509,269.984863 
	C389.575928,266.572632 386.716217,266.505829 383.409912,267.338379 
	C381.386780,267.847839 379.308838,268.139679 376.380432,268.695221 
	C379.086761,262.711090 383.018219,260.939972 388.803101,261.968872 
	C393.454620,262.796204 396.535950,266.007904 396.808044,270.764526 
	C397.025543,274.567352 396.862946,278.391876 396.867462,282.668945 
M383.838745,275.113983 
	C383.162628,276.402008 381.877197,277.764954 382.023071,278.951965 
	C382.121552,279.753418 384.528687,281.122162 385.394775,280.812988 
	C387.667786,280.001587 389.662476,278.410614 391.768066,277.130249 
	C391.506531,276.400177 391.244965,275.670074 390.983398,274.940002 
	C388.838074,274.940002 386.692719,274.940002 383.838745,275.113983 
z"/>
<path fill="#F3F3F3" opacity="1.000000" stroke="none" 
	d="
M314.895325,279.244934 
	C319.078369,282.431458 322.305603,280.635498 325.340363,277.772736 
	C326.695496,278.732941 327.895111,279.582947 329.097290,280.434784 
	C325.210358,285.680573 320.221588,287.281799 314.725983,285.153534 
	C309.495026,283.127747 306.366821,277.609558 307.224426,271.920837 
	C308.037964,266.524780 311.811707,262.628143 316.890533,261.940094 
	C322.725586,261.149597 326.627228,263.816864 329.469086,271.018005 
	C325.438995,272.695190 321.328705,274.280548 317.348358,276.143463 
	C316.246246,276.659271 315.530243,278.000000 314.895325,279.244934 
M320.375092,270.058533 
	C321.128296,269.554443 321.881470,269.050354 322.780518,268.448608 
	C317.155182,265.525696 314.033905,267.031769 313.270966,272.987915 
	C315.497375,272.056183 317.590912,271.180084 320.375092,270.058533 
z"/>
<path fill="#F3F3F3" opacity="1.000000" stroke="none" 
	d="
M240.853363,282.904968 
	C234.676086,288.548431 223.824127,286.400757 221.042816,277.809601 
	C219.314987,272.472473 221.292908,266.699738 225.740768,263.785431 
	C230.372955,260.750336 236.837540,261.232483 240.935684,264.918701 
	C245.028442,268.600098 246.009979,274.823792 243.225372,279.905029 
	C242.676132,280.907288 241.855148,281.760620 240.853363,282.904968 
M238.662537,276.739929 
	C239.696625,273.253479 239.389069,269.793488 236.026886,268.081787 
	C234.185806,267.144470 230.684540,267.003296 229.344727,268.151581 
	C227.550034,269.689697 226.108978,272.960175 226.411972,275.234222 
	C226.684448,277.279358 229.331665,280.216675 231.268219,280.505981 
	C233.383301,280.821960 235.885345,278.547729 238.662537,276.739929 
z"/>
<path fill="#EFEFEF" opacity="1.000000" stroke="none" 
	d="
M407.451416,273.649475 
	C407.944855,274.748932 408.245789,275.494965 409.029602,277.438385 
	C410.692383,273.222687 412.214691,270.042175 413.195435,266.702606 
	C414.387665,262.643005 416.759583,261.528992 421.034515,262.983551 
	C416.462250,273.453918 412.049438,283.961121 407.173126,294.248627 
	C406.517944,295.630951 403.525940,295.905609 401.492676,296.275024 
	C408.341766,285.839905 403.742798,276.873871 399.125092,267.881836 
	C398.317261,266.308685 397.776428,264.598419 397.110443,262.946869 
	C401.358002,261.386566 403.577179,262.906464 404.699982,266.805145 
	C405.340698,269.029938 406.392273,271.136353 407.451416,273.649475 
z"/>
<path fill="#F3F3F3" opacity="1.000000" stroke="none" 
	d="
M246.916641,271.470001 
	C249.835953,263.137909 256.774109,259.727478 263.781403,262.782471 
	C270.214844,265.587250 272.898376,273.294128 269.624756,279.564240 
	C266.322662,285.888885 258.131714,287.970947 252.000549,284.019806 
	C247.546021,281.149139 246.356064,276.873657 246.916641,271.470001 
M264.560913,270.379303 
	C262.809845,267.516815 260.081604,265.795563 257.087463,267.257904 
	C255.039581,268.258057 252.801773,270.812988 252.513306,272.927185 
	C252.222717,275.057068 253.669189,278.237427 255.414352,279.581970 
	C256.890259,280.719116 260.246063,280.656708 262.122803,279.764343 
	C265.593201,278.114258 265.738190,274.592010 264.560913,270.379303 
z"/>
<path fill="#EFEFEF" opacity="1.000000" stroke="none" 
	d="
M305.027557,267.000702 
	C305.027557,273.276245 305.027557,279.052490 305.027557,284.994476 
	C303.076538,284.994476 301.485596,284.994476 299.666931,284.994476 
	C299.666931,273.377777 299.666931,261.966858 299.666931,250.175079 
	C301.241455,250.175079 302.950043,250.175079 305.027557,250.175079 
	C305.027557,255.613800 305.027557,261.057617 305.027557,267.000702 
z"/>
<path fill="#FBFBFB" opacity="1.000000" stroke="none" 
	d="
M373.173187,279.936829 
	C373.173187,281.878937 373.173187,283.327881 373.173187,284.970795 
	C371.313721,284.970795 369.886322,284.970795 368.138672,284.970795 
	C368.138672,273.462433 368.138672,261.938263 368.138672,250.120316 
	C369.636047,250.120316 371.174744,250.120316 373.173187,250.120316 
	C373.173187,259.950439 373.173187,269.697052 373.173187,279.936829 
z"/>
<path fill="#D4D4D4" opacity="1.000000" stroke="none" 
	d="
M284.619751,228.470886 
	C283.885742,227.374908 283.351868,226.577026 281.994110,224.547729 
	C281.994110,229.723587 281.994110,233.649979 281.994110,238.125885 
	C279.096985,235.607422 278.522339,229.016785 279.892517,219.931076 
	C285.860107,221.289917 285.638916,227.897110 289.941101,231.031570 
	C290.238281,227.294250 290.526031,223.675766 290.813782,220.057297 
	C291.303802,220.074188 291.793854,220.091080 292.283875,220.107986 
	C292.283875,225.804138 292.283875,231.500305 292.283875,237.779358 
	C287.794739,236.357361 287.327301,231.635544 284.619751,228.470886 
z"/>
<path fill="#DCDCDC" opacity="1.000000" stroke="none" 
	d="
M197.583588,223.730011 
	C194.001373,222.482468 190.439209,221.018448 187.855942,224.437576 
	C186.569809,226.139877 185.942902,229.245911 186.574280,231.218796 
	C187.128189,232.949554 189.774704,234.919418 191.643478,235.080200 
	C193.765305,235.262741 196.050018,233.551941 198.263931,232.664230 
	C198.115189,232.135818 197.966431,231.607407 197.817688,231.078979 
	C195.824600,230.741409 193.831512,230.403824 191.838409,230.066254 
	C191.886871,229.593552 191.935333,229.120834 191.983795,228.648132 
	C194.735596,228.648132 197.487396,228.648132 200.571930,228.648132 
	C201.186310,233.144501 199.134109,236.108582 194.890060,237.571228 
	C190.916656,238.940552 186.066391,236.830963 184.217300,233.187714 
	C182.254562,229.320557 183.229004,224.543015 186.526093,221.867706 
	C189.720963,219.275360 194.611115,219.172180 197.566788,221.739349 
	C197.924438,222.049988 197.820953,222.891541 197.583588,223.730011 
z"/>
<path fill="#DCDCDC" opacity="1.000000" stroke="none" 
	d="
M267.982941,219.936890 
	C273.528503,220.259735 276.326904,223.274033 276.826416,228.105667 
	C277.254913,232.250259 275.452271,235.589722 271.366058,237.224258 
	C267.343597,238.833282 263.739563,237.942535 261.083984,234.591583 
	C258.307831,231.088516 258.022858,226.996536 260.939911,223.609482 
	C262.486847,221.813309 265.320404,221.125214 267.982941,219.936890 
M265.965149,235.000061 
	C266.945435,235.087662 267.971100,235.405823 268.898224,235.223358 
	C273.133545,234.389862 274.624512,231.505600 273.977386,227.522812 
	C273.378235,223.835297 270.799225,221.964569 267.236786,222.447876 
	C263.409943,222.967041 261.278503,225.641052 262.036743,229.519592 
	C262.404022,231.398376 264.088379,233.019653 265.965149,235.000061 
z"/>
<path fill="#D4D4D4" opacity="1.000000" stroke="none" 
	d="
M208.845490,220.061127 
	C210.740631,220.233353 212.202652,220.405563 213.664688,220.577774 
	C213.678238,221.145386 213.691772,221.712997 213.705322,222.280609 
	C211.324509,222.611420 208.943710,222.942215 206.315781,223.307358 
	C206.315781,224.615387 206.315781,226.036743 206.315781,227.454880 
	C208.617249,227.692902 210.790451,227.917633 212.963638,228.142380 
	C212.974167,228.690582 212.984711,229.238785 212.995239,229.786987 
	C210.910416,229.928513 208.825592,230.070023 206.352310,230.237915 
	C206.249634,231.579697 206.142822,232.975479 206.012131,234.683456 
	C208.657837,234.856796 211.066238,235.014587 213.474640,235.172379 
	C213.550140,235.742645 213.625626,236.312927 213.701126,236.883209 
	C210.556396,237.233505 207.411667,237.583801 203.761261,237.990417 
	C203.761261,231.881073 203.761261,226.345764 203.761261,220.321991 
	C205.249435,220.238525 206.830902,220.149826 208.845490,220.061127 
z"/>
<path fill="#D4D4D4" opacity="1.000000" stroke="none" 
	d="
M248.848312,220.061462 
	C250.255951,220.453857 251.205597,220.846024 252.155243,221.238174 
	C251.025528,222.058136 249.895813,222.878113 247.612518,224.535370 
	C247.612518,227.966949 247.612518,232.747650 247.612518,237.528366 
	C246.916626,237.568710 246.220718,237.609055 245.524826,237.649414 
	C245.296112,233.021896 245.067398,228.394394 244.824203,223.474136 
	C243.452011,223.077835 241.895676,222.628342 240.339355,222.178864 
	C240.352921,221.554855 240.366486,220.930847 240.380051,220.306854 
	C243.050140,220.224960 245.720230,220.143082 248.848312,220.061462 
z"/>
<path fill="#D4D4D4" opacity="1.000000" stroke="none" 
	d="
M224.622162,222.952759 
	C223.773727,224.874557 223.126282,226.768448 222.992447,228.697983 
	C222.788162,231.642883 222.938873,234.612381 222.938873,237.571442 
	C222.216202,237.598465 221.493546,237.625488 220.770874,237.652512 
	C220.770874,232.975235 220.770874,228.297958 220.770874,223.932526 
	C218.441528,223.045624 217.005661,222.498917 215.569809,221.952209 
	C215.646759,221.339188 215.723709,220.726166 215.800659,220.113144 
	C219.258789,220.113144 222.719360,220.051208 226.172089,220.187729 
	C226.628647,220.205795 227.045227,221.235352 227.480347,221.796448 
	C226.671280,222.177917 225.862228,222.559372 224.622162,222.952759 
z"/>
<path fill="#D4D4D4" opacity="1.000000" stroke="none" 
	d="
M238.079620,224.269287 
	C238.079636,228.978348 238.079636,233.221756 238.079636,237.774048 
	C234.743683,235.759460 234.239487,224.012863 237.488373,219.105286 
	C237.761139,221.272858 237.920364,222.538239 238.079620,224.269287 
z"/>
<path fill="#090909" opacity="1.000000" stroke="none" 
	d="
M278.480835,273.149445 
	C279.391968,269.091949 281.577942,266.101715 285.345184,267.120728 
	C287.597992,267.730133 290.111023,270.611816 290.812622,272.975159 
	C291.907654,276.663696 289.969208,279.883545 285.890808,280.869232 
	C282.141418,281.775391 279.404419,278.959198 278.480835,273.149445 
z"/>
<path fill="#020202" opacity="1.000000" stroke="none" 
	d="
M289.987183,284.976379 
	C290.019440,284.594513 290.240173,284.393585 290.460938,284.192657 
	C290.566193,284.477448 290.671448,284.762207 290.678040,285.268127 
	C290.444794,285.378601 290.310242,285.267944 289.987183,284.976379 
z"/>
<path fill="#090909" opacity="1.000000" stroke="none" 
	d="
M351.756622,254.991821 
	C357.447693,255.430756 359.920166,257.690399 359.430267,261.603455 
	C358.875763,266.032440 355.561768,267.336334 346.494751,266.529663 
	C346.494751,262.878967 346.494751,259.191254 346.494751,254.991776 
	C348.122559,254.991776 349.719971,254.991776 351.756622,254.991821 
z"/>
<path fill="#090909" opacity="1.000000" stroke="none" 
	d="
M384.193054,275.026978 
	C386.692719,274.940002 388.838074,274.940002 390.983398,274.940002 
	C391.244965,275.670074 391.506531,276.400177 391.768066,277.130249 
	C389.662476,278.410614 387.667786,280.001587 385.394775,280.812988 
	C384.528687,281.122162 382.121552,279.753418 382.023071,278.951965 
	C381.877197,277.764954 383.162628,276.402008 384.193054,275.026978 
z"/>
<path fill="#090909" opacity="1.000000" stroke="none" 
	d="
M320.029785,270.181274 
	C317.590912,271.180084 315.497375,272.056183 313.270966,272.987915 
	C314.033905,267.031769 317.155182,265.525696 322.780518,268.448608 
	C321.881470,269.050354 321.128296,269.554443 320.029785,270.181274 
z"/>
<path fill="#090909" opacity="1.000000" stroke="none" 
	d="
M238.440628,277.071228 
	C235.885345,278.547729 233.383301,280.821960 231.268219,280.505981 
	C229.331665,280.216675 226.684448,277.279358 226.411972,275.234222 
	C226.108978,272.960175 227.550034,269.689697 229.344727,268.151581 
	C230.684540,267.003296 234.185806,267.144470 236.026886,268.081787 
	C239.389069,269.793488 239.696625,273.253479 238.440628,277.071228 
z"/>
<path fill="#090909" opacity="1.000000" stroke="none" 
	d="
M264.734436,270.751770 
	C265.738190,274.592010 265.593201,278.114258 262.122803,279.764343 
	C260.246063,280.656708 256.890259,280.719116 255.414352,279.581970 
	C253.669189,278.237427 252.222717,275.057068 252.513306,272.927185 
	C252.801773,270.812988 255.039581,268.258057 257.087463,267.257904 
	C260.081604,265.795563 262.809845,267.516815 264.734436,270.751770 
z"/>
<path fill="#090909" opacity="1.000000" stroke="none" 
	d="
M265.570801,234.878784 
	C264.088379,233.019653 262.404022,231.398376 262.036743,229.519592 
	C261.278503,225.641052 263.409943,222.967041 267.236786,222.447876 
	C270.799225,221.964569 273.378235,223.835297 273.977386,227.522812 
	C274.624512,231.505600 273.133545,234.389862 268.898224,235.223358 
	C267.971100,235.405823 266.945435,235.087662 265.570801,234.878784 
z"/>
</svg>